<svg width="36" height="36" viewBox="0 0 36 36" fill="none" xmlns="http://www.w3.org/2000/svg">
<g id="Zoom">
<circle id="Ellipse 30" cx="18" cy="18" r="18" fill="#1EDC1A"/>
<path id="Arrow 3 (Stroke)" fill-rule="evenodd" clip-rule="evenodd" d="M18 10H25.2C25.6418 10 26 10.3582 26 10.8V18C26 18.4418 25.6418 18.8 25.2 18.8C24.7582 18.8 24.4 18.4418 24.4 18V12.7314L12.7314 24.4H18C18.4418 24.4 18.8 24.7582 18.8 25.2C18.8 25.6418 18.4418 26 18 26H10.8C10.3582 26 10 25.6418 10 25.2V18C10 17.5582 10.3582 17.2 10.8 17.2C11.2418 17.2 11.6 17.5582 11.6 18V23.2686L23.2686 11.6H18C17.5582 11.6 17.2 11.2418 17.2 10.8C17.2 10.3582 17.5582 10 18 10Z" fill="white"/>
</g>
</svg>
