<svg width="24" height="24" viewBox="0 0 24 24" fill="none" xmlns="http://www.w3.org/2000/svg">
<path d="M23.2197 10.92H12.1988V14.196H20.0228C19.6262 18.768 15.8163 20.724 12.2108 20.724C7.6077 20.724 3.56949 17.1 3.56949 12C3.56949 7.08 7.41541 3.276 12.2228 3.276C15.9365 3.276 18.1119 5.64 18.1119 5.64L20.3954 3.264C20.3954 3.264 17.4629 0 12.1026 0C5.27612 0 0 5.76 0 12C0 18.06 4.96364 24 12.2829 24C18.7128 24 23.4 19.596 23.4 13.092C23.4 11.712 23.2197 10.92 23.2197 10.92Z" fill="white"/>
</svg>
