<svg width="36" height="36" viewBox="0 0 36 36" fill="none" xmlns="http://www.w3.org/2000/svg">
<rect width="36" height="36" rx="12" fill="#FEB12B"/>
<path d="M17.9134 13.1406C19.2136 13.1406 20.4387 13.7267 21.3365 14.643V14.6457C21.3365 14.2057 21.6276 13.8729 22.03 13.8729H22.1321C22.767 13.8729 22.8942 14.4817 22.8942 14.6739L22.8969 21.5121C22.8527 21.9602 23.3519 22.1919 23.6292 21.9039C24.7069 20.7766 25.9985 16.1027 22.9581 13.3966C20.1226 10.8707 16.3168 11.288 14.2934 12.706C12.1428 14.2171 10.7682 17.5547 12.1035 20.6916C13.5617 24.1116 17.7303 25.1318 20.2114 24.1143C21.4674 23.5985 22.0464 25.3228 20.741 25.8873C18.7735 26.7408 13.2903 26.6537 10.7293 22.1437C8.99916 19.0972 9.0907 13.7381 13.6814 10.9617C17.1902 8.83632 21.8197 9.42516 24.6106 12.3883C27.527 15.4889 27.3583 21.2902 24.511 23.5455C23.2215 24.5711 21.3067 23.5736 21.3205 22.0793L21.3062 21.5922C20.4084 22.4966 19.2136 23.027 17.9134 23.027C15.3413 23.027 13.0768 20.7236 13.0768 18.1106C13.0768 15.4694 15.3413 13.1417 17.9134 13.1417V13.1406ZM21.1486 17.9217C21.0512 16.0074 19.6542 14.8546 17.9661 14.8546H17.9022C15.9565 14.8546 14.8757 16.4133 14.8757 18.1804C14.8757 20.1618 16.1811 21.4131 17.8943 21.4131C19.8064 21.4131 21.0619 19.9902 21.1534 18.307L21.1486 17.9217Z" fill="white"/>
</svg>
