<svg width="40" height="40" viewBox="0 0 40 40" fill="none" xmlns="http://www.w3.org/2000/svg">
<g id="Frame 944">
<g id="Vector 328">
<path d="M1 30.73V9.27C1 8.01631 2.01631 7 3.27 7H36.73C37.9837 7 39 8.01631 39 9.27V30.73C39 31.9837 37.9837 33 36.73 33H3.27C2.01631 33 1 31.9837 1 30.73Z" fill="white"/>
<path d="M38 8L23 19.6667M2 8L17 19.6667M17 19.6667L18.6064 20.9161C19.4261 21.5536 20.5739 21.5536 21.3936 20.9161L23 19.6667M17 19.6667L2 32M23 19.6667L38 32M39 9.27V30.73C39 31.9837 37.9837 33 36.73 33H3.27C2.01631 33 1 31.9837 1 30.73V9.27C1 8.01631 2.01631 7 3.27 7H36.73C37.9837 7 39 8.01631 39 9.27Z" stroke="#FFA640" stroke-width="2"/>
</g>
</g>
</svg>
