<svg width="36" height="36" viewBox="0 0 36 36" fill="none" xmlns="http://www.w3.org/2000/svg">
<rect width="36" height="36" rx="12" fill="#4285F4"/>
<path d="M27 11.9006C26.3381 12.213 25.6177 12.4379 24.8757 12.5255C25.6461 12.0247 26.223 11.2336 26.4981 10.3006C25.7753 10.7711 24.9834 11.101 24.1576 11.2757C23.8124 10.872 23.395 10.5504 22.9312 10.3309C22.4675 10.1114 21.9675 9.99879 21.4622 10C19.418 10 17.7739 11.813 17.7739 14.0379C17.7739 14.3503 17.8086 14.6627 17.8648 14.9633C14.8039 14.7882 12.0739 13.1882 10.259 10.7385C9.92828 11.3565 9.75499 12.0602 9.75712 12.7763C9.75712 14.1775 10.4082 15.413 11.4012 16.1397C10.816 16.1144 10.2446 15.9385 9.73333 15.626V15.6757C9.73333 17.6379 11.001 19.2639 12.6904 19.6379C12.3732 19.728 12.0469 19.7742 11.7191 19.7752C11.479 19.7752 11.2519 19.7491 11.0226 19.7136C11.4898 21.3136 12.8505 22.4757 14.4707 22.5136C13.2031 23.6 11.6153 24.2391 9.89124 24.2391C9.5819 24.2391 9.29636 24.2272 9 24.1894C10.6354 25.3373 12.5758 26 14.6654 26C21.4492 26 25.1613 19.8509 25.1613 14.5136C25.1613 14.3385 25.1613 14.1633 25.1505 13.9882C25.8686 13.413 26.4981 12.7006 27 11.9006Z" fill="white"/>
</svg>
