<svg width="24" height="15" viewBox="0 0 24 15" fill="none" xmlns="http://www.w3.org/2000/svg">
<path d="M23.4497 0.965345C23.6174 0.408415 23.4497 0 22.6568 0H20.0303C19.362 0 19.0566 0.353321 18.8889 0.741376C18.8889 0.741376 17.5535 3.99792 15.6611 6.10946C15.0503 6.72388 14.7712 6.9179 14.4382 6.9179C14.2718 6.9179 14.0298 6.72388 14.0298 6.16695V0.965345C14.0298 0.297029 13.837 0 13.2801 0H9.15281C8.73601 0 8.48449 0.309006 8.48449 0.60364C8.48449 1.23602 9.43067 1.38214 9.52769 3.16432V7.03049C9.52769 7.87726 9.37558 8.03176 9.04022 8.03176C8.15033 8.03176 5.9849 4.76324 4.69977 1.02164C4.44945 0.294634 4.19673 0.00119818 3.52602 0.00119818H0.900669C0.149712 0.00119818 0 0.354519 0 0.742573C0 1.43963 0.889889 4.889 4.14523 9.45103C6.31546 12.5662 9.37079 14.255 12.1542 14.255C13.8226 14.255 14.0286 13.8801 14.0286 13.2334V10.8787C14.0286 10.1289 14.1879 9.97802 14.7161 9.97802C15.1042 9.97802 15.7725 10.1744 17.3307 11.6752C19.1105 13.4549 19.4051 14.2538 20.4052 14.2538H23.0305C23.7803 14.2538 24.1552 13.8789 23.9396 13.1387C23.7036 12.4022 22.8533 11.3302 21.725 10.0619C21.1118 9.33845 20.1956 8.55995 19.9165 8.1707C19.5273 7.66886 19.6398 7.44729 19.9165 7.00174C19.9177 7.00294 23.1168 2.4972 23.4497 0.965345Z" fill="white"/>
</svg>
