<svg  xmlns="http://www.w3.org/2000/svg">
    <symbol id="fullScreenIcon" fill="currentColor">
        <path d="M1.14169 26.0319C0.481722 26.1262 -0.0839634 25.5605 0.0103178 24.9005L0.998956 18.6767C1.11549 17.8609 1.83179 17.3882 2.41447 17.9709L3.82899 19.3854L8.77873 14.4356C9.55978 13.6546 10.8261 13.6546 11.6072 14.4356C12.3882 15.2167 12.3882 16.483 11.6072 17.2641L6.65742 22.2138L8.07133 23.6277C8.65402 24.2104 8.17871 24.9241 7.36294 25.0407L1.14169 26.0319Z" fill="currentColor"/>
        <path d="M26.0258 1.14169C26.1201 0.481722 25.5544 -0.0839634 24.8944 0.0103178L18.6706 0.998956C17.8548 1.11549 17.3821 1.83179 17.9648 2.41447L19.3793 3.82899L14.4295 8.77873C13.6485 9.55978 13.6485 10.8261 14.4295 11.6072C15.2106 12.3882 16.4769 12.3882 17.258 11.6072L22.2077 6.65742L23.6216 8.07133C24.2043 8.65402 24.918 8.17871 25.0346 7.36294L26.0258 1.14169Z" fill="currentColor"/>
    </symbol>

</svg>
