<svg width="36" height="37" viewBox="0 0 36 37" fill="none" xmlns="http://www.w3.org/2000/svg">
<circle cx="18" cy="18" r="18" transform="matrix(-1 0 0 1 36 0.921875)" fill="white" fill-opacity="0.8"/>
<rect x="21.2734" y="8.92578" width="1.99528" height="9" rx="0.997641" transform="rotate(30 21.2734 8.92578)" fill="#1EDC1A"/>
<path fill-rule="evenodd" clip-rule="evenodd" d="M28 25.9219C28 28.6833 25.7614 30.9219 23 30.9219C20.2386 30.9219 18 28.6833 18 25.9219C18 23.1605 20.2386 20.9219 23 20.9219C25.7614 20.9219 28 23.1605 28 25.9219ZM25.8321 23.0937C26.2226 23.4842 26.2226 24.1174 25.8321 24.5079L24.4142 25.9258L25.8247 27.3363C26.2153 27.7268 26.2153 28.36 25.8247 28.7505C25.4342 29.1411 24.8011 29.1411 24.4105 28.7505L23 27.34L21.5895 28.7505C21.1989 29.1411 20.5658 29.1411 20.1753 28.7505C19.7847 28.36 19.7847 27.7268 20.1753 27.3363L21.5858 25.9258L20.1679 24.5079C19.7774 24.1174 19.7774 23.4842 20.1679 23.0937C20.5584 22.7032 21.1916 22.7032 21.5821 23.0937L23 24.5116L24.4179 23.0937C24.8084 22.7032 25.4416 22.7032 25.8321 23.0937Z" fill="#1EDC1A"/>
<path fill-rule="evenodd" clip-rule="evenodd" d="M15.8349 14.2162C15.3566 13.94 14.745 14.1039 14.4689 14.5822L13.4689 16.3142L19.5535 19.8272C20.0187 19.5635 20.5171 19.3515 21.0409 19.1991L21.3971 18.5822C21.6733 18.1039 21.5094 17.4923 21.0311 17.2162L15.8349 14.2162Z" fill="#1EDC1A"/>
<path fill-rule="evenodd" clip-rule="evenodd" d="M12.665 18.0507C12.3381 17.8686 11.9326 17.8803 11.6176 18.081L6.28733 21.4763C5.77674 21.8016 5.98924 22.5667 6.59997 22.6021C6.8 22.6136 6.98271 22.7154 7.09312 22.8767L7.87096 24.0133C8.04378 24.2659 8.32976 24.4252 8.64286 24.4433L9.87242 24.5145C10.1855 24.5326 10.4715 24.6919 10.6443 24.9444L11.323 25.9362C11.4958 26.1887 11.7818 26.348 12.0949 26.3661L13.3245 26.4373C13.6376 26.4555 13.9236 26.6147 14.0964 26.8673L14.7751 27.859C14.9479 28.1115 15.2339 28.2708 15.547 28.289L16.4282 28.34C16.1508 27.5863 15.9993 26.7718 15.9993 25.9219C15.9993 24.0143 16.7624 22.2849 17.9999 21.0223L12.665 18.0507ZM18.6169 28.331L18.9492 22.9893C18.3517 23.8131 17.9993 24.8263 17.9993 25.9219C17.9993 26.7953 18.2233 27.6164 18.6169 28.331Z" fill="#1EDC1A"/>
</svg>
