<svg width="32" height="33" viewBox="0 0 32 33" fill="none" xmlns="http://www.w3.org/2000/svg">
<g id="Group 289">
<path id="Subtract" fill-rule="evenodd" clip-rule="evenodd" d="M22 3.92188H10V4.92096C10 6.57782 8.65685 7.92096 7 7.92096C5.34315 7.92096 4 6.57782 4 4.92096V3.92188H3C1.34315 3.92188 0 5.26502 0 6.92187V29.9219C0 31.5787 1.34315 32.9219 3 32.9219H29C30.6569 32.9219 32 31.5787 32 29.9219V6.92188C32 5.26502 30.6569 3.92188 29 3.92188H28V4.92096C28 6.57782 26.6569 7.92096 25 7.92096C23.3431 7.92096 22 6.57782 22 4.92096V3.92188ZM30 10.9219H2V29.9219C2 30.4742 2.44771 30.9219 3 30.9219H29C29.5523 30.9219 30 30.4742 30 29.9219V10.9219Z" fill="#1EDC1A"/>
<path id="Vector 291 (Stroke)" fill-rule="evenodd" clip-rule="evenodd" d="M7 0.921875C7.55228 0.921875 8 1.36959 8 1.92188V4.92188C8 5.47416 7.55228 5.92188 7 5.92188C6.44772 5.92188 6 5.47416 6 4.92188V1.92188C6 1.36959 6.44772 0.921875 7 0.921875Z" fill="#1EDC1A"/>
<path id="Vector 292 (Stroke)" fill-rule="evenodd" clip-rule="evenodd" d="M25 0.921875C25.5523 0.921875 26 1.36959 26 1.92188V4.92188C26 5.47416 25.5523 5.92188 25 5.92188C24.4477 5.92188 24 5.47416 24 4.92188V1.92188C24 1.36959 24.4477 0.921875 25 0.921875Z" fill="#1EDC1A"/>
<rect id="Rectangle 462" x="5" y="12.9219" width="4" height="4" rx="1" fill="#1EDC1A"/>
<rect id="Rectangle 463" x="5" y="18.9219" width="4" height="4" rx="1" fill="#1EDC1A"/>
<rect id="Rectangle 472" x="5" y="24.9219" width="4" height="4" rx="1" fill="#1EDC1A"/>
<rect id="Rectangle 464" x="11" y="12.9219" width="4" height="4" rx="1" fill="#1EDC1A"/>
<rect id="Rectangle 465" x="11" y="18.9219" width="4" height="4" rx="1" fill="#1EDC1A"/>
<rect id="Rectangle 470" x="17" y="12.9219" width="4" height="4" rx="1" fill="#1EDC1A"/>
<rect id="Rectangle 467" x="17" y="18.9219" width="4" height="4" rx="1" fill="#1EDC1A"/>
<rect id="Rectangle 471" x="23" y="18.9219" width="4" height="4" rx="1" fill="#1EDC1A"/>
<rect id="Rectangle 473" x="11" y="24.9219" width="4" height="4" rx="1" fill="#1EDC1A"/>
<rect id="Rectangle 466" x="23" y="12.9219" width="4" height="4" rx="1" fill="#1EDC1A"/>
</g>
</svg>
