<svg width="25" height="24" viewBox="0 0 25 24" fill="none" xmlns="http://www.w3.org/2000/svg">
<path d="M11.8746 4.9809C13.7526 4.9809 15.5222 5.82754 16.819 7.15105V7.15496C16.819 6.51939 17.2395 6.03861 17.8207 6.03861H17.9682C18.8853 6.03861 19.0691 6.91808 19.0691 7.19561L19.0729 17.0731C19.0091 17.7204 19.7302 18.055 20.1307 17.6391C21.6873 16.0107 23.553 9.25944 19.1613 5.35067C15.0655 1.70222 9.56838 2.30495 6.64569 4.35315C3.53927 6.53581 1.55365 11.3569 3.48238 15.8879C5.58869 20.8278 11.6101 22.3015 15.1939 20.8318C17.0081 20.0867 17.8445 22.5774 15.9588 23.3928C13.1168 24.6256 5.19664 24.4997 1.49753 17.9854C-1.0016 13.5849 -0.869375 5.84395 5.76165 1.83355C10.8299 -1.2364 17.517 -0.38585 21.5482 3.89426C25.7608 8.37293 25.5171 16.7526 21.4044 20.0101C19.5418 21.4916 16.776 20.0508 16.7959 17.8924L16.7752 17.1888C15.4783 18.4951 13.7526 19.2612 11.8746 19.2612C8.15931 19.2612 4.88838 15.9341 4.88838 12.1597C4.88838 8.34479 8.15931 4.98246 11.8746 4.98246V4.9809ZM16.5476 11.8869C16.407 9.12185 14.3891 7.45671 11.9507 7.45671H11.8584C9.04795 7.45671 7.48667 9.70817 7.48667 12.2606C7.48667 15.1226 9.37236 16.93 11.8469 16.93C14.6089 16.93 16.4223 14.8748 16.5546 12.4435L16.5476 11.8869Z" fill="white"/>
</svg>
