<svg width="36" height="36" viewBox="0 0 36 36" fill="none" xmlns="http://www.w3.org/2000/svg">
<rect width="36" height="36" rx="12" fill="#FF7900"/>
<path d="M24.8035 18.4506C24.5007 17.8429 23.6466 17.3311 22.5113 18.1947C20.9652 19.4102 18.5 19.4102 18.5 19.4102C18.5 19.4102 16.0348 19.4102 14.4887 18.1947C13.3534 17.3311 12.4993 17.8429 12.1965 18.4506C11.6559 19.5168 12.2614 20.0392 13.6345 20.9028C14.8131 21.6491 16.4241 21.9263 17.462 22.0329L16.5971 22.8859C15.3645 24.0906 14.1752 25.2527 13.3642 26.063C12.8777 26.5535 12.8777 27.3318 13.3642 27.7902L13.5156 27.9608C14.0022 28.4406 14.8023 28.4406 15.2888 27.9608L18.5 24.7836C19.7434 25.9884 20.9219 27.1505 21.7436 27.9608C22.2302 28.4406 23.0195 28.4406 23.5168 27.9608L23.6574 27.7902C24.1547 27.3318 24.1547 26.5535 23.6574 26.063L20.4354 22.8859L19.5812 22.0223C20.6084 21.9263 22.1977 21.6384 23.3655 20.9028C24.7386 20.0392 25.3441 19.5168 24.8035 18.4506ZM18.5 9.74004C19.9921 9.74004 21.203 10.9341 21.203 12.3948C21.203 13.8661 19.9921 15.0495 18.5 15.0495C17.0079 15.0495 15.797 13.8661 15.797 12.3948C15.797 10.9341 17.0079 9.74004 18.5 9.74004ZM18.5 17.7896C21.5274 17.7896 23.9709 15.3801 23.9709 12.3948C23.9709 10.964 23.3945 9.59182 22.3685 8.5801C21.3425 7.56838 19.951 7 18.5 7C17.049 7 15.6575 7.56838 14.6315 8.5801C13.6055 9.59182 13.0291 10.964 13.0291 12.3948C13.0291 15.3801 15.4726 17.7896 18.5 17.7896Z" fill="white"/>
</svg>
