<svg width="14" height="14" viewBox="0 0 14 14" fill="none" xmlns="http://www.w3.org/2000/svg">
<path fill-rule="evenodd" clip-rule="evenodd" d="M7.70711 10.7071C7.31658 11.0976 6.68342 11.0976 6.29289 10.7071L0.292892 4.70711C-0.097632 4.31658 -0.0976321 3.68342 0.292892 3.29289C0.683417 2.90237 1.31658 2.90237 1.70711 3.29289L7.70711 9.29289C8.09763 9.68342 8.09763 10.3166 7.70711 10.7071Z" fill="#2B2B2B"/>
<path fill-rule="evenodd" clip-rule="evenodd" d="M6.29289 10.7071C6.68342 11.0976 7.31658 11.0976 7.70711 10.7071L13.7071 4.70711C14.0976 4.31658 14.0976 3.68342 13.7071 3.29289C13.3166 2.90237 12.6834 2.90237 12.2929 3.29289L6.29289 9.29289C5.90237 9.68342 5.90237 10.3166 6.29289 10.7071Z" fill="#2B2B2B"/>
</svg>
