<svg width="134" height="105" viewBox="0 0 134 105" fill="none" xmlns="http://www.w3.org/2000/svg">
<path d="M66.992 102.5V39.5977M66.992 39.5977L41.8047 64.5076M66.992 39.5977L92.1793 64.5076" stroke="#1EDC1A" stroke-width="4" stroke-linecap="round" stroke-linejoin="round"/>
<path d="M53.9996 86.3681H31.326C31.2897 86.3683 31.2534 86.3683 31.217 86.3683C15.0809 86.3683 2 73.6454 2 57.9508C2 42.2562 15.0809 29.5333 31.217 29.5333C32.1814 29.5333 33.1348 29.5787 34.0752 29.6675C40.2167 13.7936 55.9725 2.5 74.4403 2.5C98.2517 2.5 117.555 21.2747 117.555 44.4345C117.555 44.6423 117.553 44.8497 117.55 45.0568C125.977 48.0171 132 55.8661 132 65.0833C132 76.8396 122.202 86.3699 110.115 86.3699C110.037 86.3699 109.959 86.3695 109.881 86.3687H79.9995" stroke="#1EDC1A" stroke-width="4" stroke-linecap="round"/>
</svg>
