<svg width="36" height="36" viewBox="0 0 36 36" fill="none" xmlns="http://www.w3.org/2000/svg">
<g id="Group 331">
<g id="Group 133">
<rect id="Rectangle 481" width="36" height="36" rx="12" fill="#0178FD"/>
</g>
<path id="Vector" d="M26.5873 12.8126C26.7131 12.3438 26.5873 12 25.9926 12H24.0227C23.5215 12 23.2924 12.2974 23.1667 12.6241C23.1667 12.6241 22.1651 15.3655 20.7458 17.143C20.2877 17.6602 20.0784 17.8236 19.8287 17.8236C19.7038 17.8236 19.5224 17.6602 19.5224 17.1914V12.8126C19.5224 12.25 19.3778 12 18.9601 12H15.8646C15.552 12 15.3634 12.2601 15.3634 12.5082C15.3634 13.0405 16.073 13.1635 16.1458 14.6638V17.9183C16.1458 18.6312 16.0317 18.7612 15.7802 18.7612C15.1128 18.7612 13.4887 16.0097 12.5248 12.86C12.3371 12.248 12.1475 12.001 11.6445 12.001H9.6755C9.11228 12.001 9 12.2984 9 12.6251C9 13.2119 9.66742 16.1156 12.1089 19.956C13.7366 22.5784 16.0281 24 18.1157 24C19.367 24 19.5215 23.6844 19.5215 23.14V21.1578C19.5215 20.5266 19.6409 20.3996 20.0371 20.3996C20.3281 20.3996 20.8294 20.5649 21.998 21.8283C23.3328 23.3265 23.5538 23.999 24.3039 23.999H26.2729C26.8352 23.999 27.1164 23.6834 26.9547 23.0603C26.7777 22.4403 26.14 21.5379 25.2938 20.4702C24.8339 19.8612 24.1467 19.2058 23.9374 18.8782C23.6454 18.4557 23.7299 18.2692 23.9374 17.8941C23.9383 17.8951 26.3376 14.1022 26.5873 12.8126Z" fill="white"/>
</g>
</svg>
