<svg width="36" height="36" viewBox="0 0 36 36" fill="none" xmlns="http://www.w3.org/2000/svg">
<circle cx="18" cy="18" r="18" transform="matrix(-1 0 0 1 36 0)" fill="#1EDC1A"/>
<rect x="21.2734" y="7.00293" width="1.99528" height="9" rx="0.997641" transform="rotate(30 21.2734 7.00293)" fill="white"/>
<path fill-rule="evenodd" clip-rule="evenodd" d="M28 24C28 26.7614 25.7614 29 23 29C20.2386 29 18 26.7614 18 24C18 21.2386 20.2386 19 23 19C25.7614 19 28 21.2386 28 24ZM25.8321 21.1718C26.2226 21.5623 26.2226 22.1955 25.8321 22.586L24.4142 24.0039L25.8247 25.4144C26.2153 25.805 26.2153 26.4381 25.8247 26.8287C25.4342 27.2192 24.8011 27.2192 24.4105 26.8287L23 25.4181L21.5895 26.8287C21.1989 27.2192 20.5658 27.2192 20.1753 26.8287C19.7847 26.4381 19.7847 25.805 20.1753 25.4144L21.5858 24.0039L20.1679 22.586C19.7774 22.1955 19.7774 21.5623 20.1679 21.1718C20.5584 20.7813 21.1916 20.7813 21.5821 21.1718L23 22.5897L24.4179 21.1718C24.8084 20.7813 25.4416 20.7813 25.8321 21.1718Z" fill="white"/>
<path fill-rule="evenodd" clip-rule="evenodd" d="M15.8349 12.2948C15.3566 12.0186 14.745 12.1825 14.4689 12.6608L13.4689 14.3929L19.5535 17.9058C20.0187 17.6421 20.5171 17.4301 21.0409 17.2777L21.3971 16.6608C21.6733 16.1825 21.5094 15.5709 21.0311 15.2948L15.8349 12.2948Z" fill="white"/>
<path fill-rule="evenodd" clip-rule="evenodd" d="M12.6689 16.1288C12.342 15.9467 11.9365 15.9585 11.6215 16.1591L6.29123 19.5545C5.78065 19.8797 5.99314 20.6448 6.60388 20.6802C6.80391 20.6918 6.98661 20.7935 7.09703 20.9549L7.87486 22.0914C8.04769 22.344 8.33367 22.5033 8.64677 22.5214L9.87632 22.5926C10.1894 22.6107 10.4754 22.77 10.6482 23.0226L11.3269 24.0143C11.4997 24.2668 11.7857 24.4261 12.0988 24.4442L13.3284 24.5154C13.6415 24.5336 13.9275 24.6929 14.1003 24.9454L14.779 25.9371C14.9518 26.1897 15.2378 26.3489 15.5509 26.3671L16.4321 26.4181C16.1547 25.6645 16.0032 24.8499 16.0032 24C16.0032 22.0924 16.7663 20.363 18.0038 19.1004L12.6689 16.1288ZM18.6208 26.4091L18.9531 21.0674C18.3556 21.8912 18.0032 22.9045 18.0032 24C18.0032 24.8734 18.2272 25.6946 18.6208 26.4091Z" fill="white"/>
</svg>
