<svg width="16" height="16" viewBox="0 0 16 16" fill="none" xmlns="http://www.w3.org/2000/svg">
<path fill-rule="evenodd" clip-rule="evenodd" d="M8 0H15.2C15.6418 0 16 0.358172 16 0.8V8C16 8.44183 15.6418 8.8 15.2 8.8C14.7582 8.8 14.4 8.44183 14.4 8V2.73137L2.73137 14.4H8C8.44183 14.4 8.8 14.7582 8.8 15.2C8.8 15.6418 8.44183 16 8 16H0.8C0.358172 16 0 15.6418 0 15.2V8C0 7.55817 0.358172 7.2 0.8 7.2C1.24183 7.2 1.6 7.55817 1.6 8V13.2686L13.2686 1.6H8C7.55817 1.6 7.2 1.24183 7.2 0.8C7.2 0.358172 7.55817 0 8 0Z" fill="#1EDC1A"/>
</svg>
