<svg width="173" height="396" viewBox="0 0 173 396" fill="none" xmlns="http://www.w3.org/2000/svg">
<rect opacity="0.1" y="-13.6445" width="155.837" height="300" transform="rotate(-41.0569 0 -13.6445)" fill="#1EDC1A"/>
<rect opacity="0.1" x="193.291" y="46" width="155.837" height="396.556" transform="rotate(26.3948 193.291 46)" fill="#1EDC1A"/>
<circle cx="161.043" cy="172.177" r="20.6741" transform="rotate(10.7956 161.043 172.177)" fill="white"/>
<path d="M181.352 176.05C179.213 187.266 168.387 194.624 157.171 192.486C145.955 190.347 138.597 179.521 140.735 168.305C142.874 157.089 153.7 149.731 164.916 151.869C176.132 154.008 183.49 164.834 181.352 176.05ZM148.962 169.874C147.69 176.546 152.067 182.987 158.74 184.259C165.412 185.531 171.853 181.154 173.125 174.481C174.397 167.809 170.02 161.368 163.347 160.096C156.675 158.824 150.234 163.201 148.962 169.874Z" fill="white" stroke="#1EDC1A" stroke-width="1.5"/>
<path d="M159.263 145.656C166.14 145.194 172.926 147.421 178.192 151.867C183.458 156.313 186.791 162.63 187.489 169.487L173.278 170.933C172.956 167.761 171.413 164.838 168.977 162.781C166.541 160.725 163.402 159.694 160.221 159.908L159.263 145.656Z" fill="white"/>
<path d="M162.772 198.702C155.895 199.15 149.112 196.909 143.855 192.452C138.599 187.996 135.278 181.671 134.595 174.814L148.808 173.397C149.125 176.569 150.661 179.495 153.093 181.557C155.524 183.619 158.662 184.655 161.844 184.448L162.772 198.702Z" fill="white"/>
<path d="M159.263 145.656C166.14 145.194 172.926 147.421 178.192 151.867C183.458 156.313 186.791 162.63 187.489 169.487L173.278 170.933C172.956 167.761 171.413 164.838 168.977 162.781C166.541 160.725 163.402 159.694 160.221 159.908L159.263 145.656Z" stroke="#1EDC1A" stroke-width="1.5"/>
<path d="M162.772 198.702C155.895 199.15 149.112 196.909 143.855 192.452C138.599 187.996 135.278 181.671 134.595 174.814L148.808 173.397C149.125 176.569 150.661 179.495 153.093 181.557C155.524 183.619 158.662 184.655 161.844 184.448L162.772 198.702Z" stroke="#1EDC1A" stroke-width="1.5"/>
<circle cx="161.874" cy="167.825" r="2.69568" transform="rotate(10.7956 161.874 167.825)" stroke="#1EDC1A" stroke-width="1.5"/>
<path d="M154.051 176.065C154.377 174.351 155.21 173.496 156.307 173.085C157.478 172.647 159.053 172.68 160.882 173.029C162.71 173.377 164.187 173.927 165.115 174.765C165.984 175.55 166.443 176.652 166.116 178.366C165.892 179.542 164.81 180.269 163.611 180.04L155.764 178.544C154.565 178.315 153.826 177.242 154.051 176.065Z" stroke="#1EDC1A" stroke-width="1.5" stroke-linecap="round"/>
<path d="M190.296 188.278C189.226 193.886 183.813 197.565 178.206 196.496C172.598 195.427 168.918 190.014 169.988 184.406C171.057 178.798 176.47 175.119 182.078 176.188C187.686 177.257 191.365 182.67 190.296 188.278Z" fill="#1EDC1A"/>
<path d="M211.681 128.812L212.632 128.781L199.194 143.277C197.052 145.587 193.492 145.857 191.027 143.895L184.474 138.679L177.922 133.463C175.456 131.501 174.92 127.971 176.691 125.365L187.803 109.018L187.986 109.952C188.362 111.868 190.072 113.229 192.023 113.165C193.239 113.126 194.305 113.974 194.539 115.168C194.915 117.084 196.624 118.444 198.576 118.381C199.792 118.341 200.857 119.189 201.092 120.383C201.467 122.299 203.177 123.66 205.128 123.596C206.344 123.557 207.41 124.405 207.644 125.599C208.02 127.515 209.73 128.875 211.681 128.812Z" fill="white" stroke="#FFA640" stroke-width="1.5"/>
<mask id="path-13-inside-1_4_873" fill="white">
<path d="M99.9453 127.92C101.739 124.713 104.542 122.187 107.918 120.735C111.293 119.282 115.054 118.984 118.617 119.887L114.516 136.07L99.9453 127.92Z"/>
</mask>
<path d="M99.9453 127.92C101.739 124.713 104.542 122.187 107.918 120.735C111.293 119.282 115.054 118.984 118.617 119.887L114.516 136.07L99.9453 127.92Z" fill="white" stroke="#FFA640" stroke-width="3" mask="url(#path-13-inside-1_4_873)"/>
<mask id="path-14-inside-2_4_873" fill="white">
<path d="M102.272 129.222C103.78 126.527 106.135 124.404 108.972 123.184C111.809 121.963 114.969 121.713 117.963 122.471L114.516 136.071L102.272 129.222Z"/>
</mask>
<path d="M102.272 129.222C103.78 126.527 106.135 124.404 108.972 123.184C111.809 121.963 114.969 121.713 117.963 122.471L114.516 136.071L102.272 129.222Z" fill="white" stroke="#FFA640" stroke-width="3" mask="url(#path-14-inside-2_4_873)"/>
<mask id="path-15-inside-3_4_873" fill="white">
<path d="M120.64 120.539C123.712 121.75 126.355 123.845 128.237 126.559C130.118 129.272 131.152 132.483 131.209 135.784C131.265 139.086 130.342 142.33 128.554 145.106C126.767 147.883 124.197 150.067 121.169 151.382C118.14 152.698 114.789 153.086 111.54 152.498C108.291 151.909 105.29 150.37 102.915 148.076C100.541 145.781 98.9001 142.834 98.2006 139.607C97.501 136.38 97.774 133.018 98.9852 129.947L114.516 136.07L120.64 120.539Z"/>
</mask>
<path d="M120.64 120.539C123.712 121.75 126.355 123.845 128.237 126.559C130.118 129.272 131.152 132.483 131.209 135.784C131.265 139.086 130.342 142.33 128.554 145.106C126.767 147.883 124.197 150.067 121.169 151.382C118.14 152.698 114.789 153.086 111.54 152.498C108.291 151.909 105.29 150.37 102.915 148.076C100.541 145.781 98.9001 142.834 98.2006 139.607C97.501 136.38 97.774 133.018 98.9852 129.947L114.516 136.07L120.64 120.539Z" fill="white" stroke="#FFA640" stroke-width="3" mask="url(#path-15-inside-3_4_873)"/>
<mask id="path-16-inside-4_4_873" fill="white">
<path d="M119.662 123.019C122.243 124.037 124.465 125.797 126.046 128.078C127.627 130.358 128.496 133.056 128.543 135.83C128.591 138.604 127.815 141.331 126.313 143.664C124.811 145.997 122.651 147.832 120.106 148.938C117.561 150.044 114.746 150.37 112.015 149.875C109.285 149.38 106.763 148.087 104.767 146.159C102.772 144.231 101.393 141.755 100.805 139.043C100.218 136.331 100.447 133.506 101.465 130.925L114.516 136.071L119.662 123.019Z"/>
</mask>
<path d="M119.662 123.019C122.243 124.037 124.465 125.797 126.046 128.078C127.627 130.358 128.496 133.056 128.543 135.83C128.591 138.604 127.815 141.331 126.313 143.664C124.811 145.997 122.651 147.832 120.106 148.938C117.561 150.044 114.746 150.37 112.015 149.875C109.285 149.38 106.763 148.087 104.767 146.159C102.772 144.231 101.393 141.755 100.805 139.043C100.218 136.331 100.447 133.506 101.465 130.925L114.516 136.071L119.662 123.019Z" fill="white" stroke="#FFA640" stroke-width="3" mask="url(#path-16-inside-4_4_873)"/>
<circle cx="107.313" cy="138.659" r="1.49468" transform="rotate(-68.4819 107.313 138.659)" stroke="#FFA640" stroke-width="1.5"/>
<circle cx="113.733" cy="144.813" r="1.49468" transform="rotate(-68.4819 113.733 144.813)" stroke="#FFA640" stroke-width="1.5"/>
<circle cx="118.977" cy="144.332" r="1.49468" transform="rotate(-68.4819 118.977 144.332)" stroke="#FFA640" stroke-width="1.5"/>
<circle cx="109.134" cy="127.916" r="1.49468" transform="rotate(-68.4819 109.134 127.916)" stroke="#FFA640" stroke-width="1.5"/>
<circle cx="120.198" cy="133.017" r="1.49468" transform="rotate(-68.4819 120.198 133.017)" stroke="#FFA640" stroke-width="1.5"/>
<circle cx="121.526" cy="139.237" r="1.49468" transform="rotate(-68.4819 121.526 139.237)" stroke="#FFA640" stroke-width="1.5"/>
<path d="M112.202 131.614L112.832 131.259C113.199 131.052 113.371 130.617 113.243 130.215V130.215C113.116 129.813 113.288 129.378 113.655 129.171V129.171C114.022 128.964 114.194 128.528 114.067 128.127L113.848 127.438" stroke="#FFA640" stroke-width="1.5" stroke-linecap="round" stroke-linejoin="round"/>
<path d="M106.242 135.114L105.519 135.106C105.098 135.102 104.731 135.393 104.641 135.804V135.804C104.55 136.216 104.184 136.507 103.762 136.503V136.503C103.341 136.498 102.974 136.79 102.884 137.201L102.728 137.907" stroke="#FFA640" stroke-width="1.5" stroke-linecap="round" stroke-linejoin="round"/>
<path d="M117.096 140.6L117.613 140.094C117.914 139.799 117.967 139.334 117.741 138.979V138.979C117.514 138.624 117.567 138.159 117.868 137.864V137.864C118.169 137.569 118.222 137.104 117.995 136.749L117.606 136.14" stroke="#FFA640" stroke-width="1.5" stroke-linecap="round" stroke-linejoin="round"/>
<path d="M109.842 144.482L109.487 143.852C109.28 143.485 108.844 143.313 108.443 143.44V143.44C108.041 143.567 107.605 143.395 107.399 143.028V143.028C107.192 142.661 106.756 142.489 106.355 142.617L105.665 142.835" stroke="#FFA640" stroke-width="1.5" stroke-linecap="round" stroke-linejoin="round"/>
<path d="M125.11 139.187L125.325 138.497C125.45 138.095 125.276 137.66 124.908 137.455V137.455C124.54 137.25 124.367 136.815 124.492 136.412V136.412C124.617 136.01 124.444 135.575 124.076 135.37L123.444 135.018" stroke="#FFA640" stroke-width="1.5" stroke-linecap="round" stroke-linejoin="round"/>
<path d="M115.179 139.943L114.557 139.574C114.195 139.36 113.731 139.429 113.447 139.74V139.74C113.163 140.051 112.7 140.12 112.337 139.906V139.906C111.974 139.691 111.511 139.76 111.227 140.071L110.739 140.605" stroke="#FFA640" stroke-width="1.5" stroke-linecap="round" stroke-linejoin="round"/>
<path d="M131.356 123.228C133.971 125.165 134.522 128.855 132.585 131.47C130.649 134.085 126.959 134.636 124.343 132.699C121.728 130.763 121.178 127.073 123.114 124.457C125.051 121.842 128.741 121.292 131.356 123.228Z" fill="white"/>
<path d="M130.91 123.831C133.192 125.521 133.672 128.741 131.982 131.024C130.292 133.306 127.072 133.787 124.79 132.096C122.507 130.406 122.027 127.186 123.717 124.904C125.407 122.621 128.627 122.141 130.91 123.831Z" stroke="#1EDC1A" stroke-width="1.5"/>
<path d="M127.068 130.178L129.323 131.847" stroke="#1EDC1A" stroke-width="1.5" stroke-linecap="round"/>
<path d="M126.167 128.349C126.796 128.815 126.832 129.491 126.587 129.822C126.343 130.152 125.685 130.316 125.056 129.85C124.427 129.384 124.391 128.708 124.636 128.377C124.881 128.046 125.538 127.883 126.167 128.349Z" stroke="#1EDC1A" stroke-width="1.5"/>
<path d="M127.15 125.352L131.66 128.691" stroke="#1EDC1A" stroke-width="1.5" stroke-linecap="round"/>
<path d="M125.988 126.236L127.115 127.071C127.738 127.532 128.616 127.401 129.077 126.778V126.778C129.538 126.155 129.407 125.277 128.785 124.816L127.657 123.981" stroke="#1EDC1A" stroke-width="1.5" stroke-linecap="round"/>
<path d="M139.23 118.502L134.496 97.5279L151.953 94.9246L153.545 116.368C153.826 120.157 151.137 123.521 147.379 124.082C143.621 124.642 140.067 122.209 139.23 118.502ZM151.757 93.4373L134.251 96.048C134.287 94.7331 135.259 93.5772 136.624 93.3736L148.706 91.5717C150.071 91.3682 151.338 92.1902 151.757 93.4373Z" fill="white" stroke="#FFA640" stroke-width="1.5"/>
<path d="M141.342 107.437C141.68 105.998 142.863 104.84 144.414 104.609C145.965 104.378 147.435 105.14 148.178 106.417M141.683 110.038C142.402 111.385 143.914 112.201 145.511 111.963C147.108 111.725 148.316 110.503 148.611 109.005" stroke="#FFA640" stroke-width="1.5"/>
<rect x="139.279" y="107.568" width="11.1528" height="3.09801" transform="rotate(-8.48188 139.279 107.568)" stroke="#FFA640" stroke-width="1.5" stroke-linejoin="round"/>
<path d="M144.932 128.675L142.61 129.022L142.56 128.691L142.031 125.143L152.804 123.536L153.333 127.084L153.383 127.415L151.06 127.761L150.27 127.879C150.058 126.652 148.903 125.812 147.665 125.997C146.427 126.181 145.567 127.321 145.723 128.557L144.932 128.675ZM153.491 128.915C153.326 129.967 152.496 130.836 151.387 131.001L145.565 131.87C144.456 132.035 143.409 131.446 142.944 130.488L145.153 130.159L146.685 129.93L148.217 129.702L149.75 129.473L151.282 129.245L153.491 128.915ZM147.886 127.48C148.305 127.418 148.696 127.693 148.785 128.101L147.996 128.218L147.208 128.336C147.173 127.92 147.467 127.543 147.886 127.48Z" fill="white" stroke="#FFA640" stroke-width="1.5"/>
<rect x="151.674" y="97.3936" width="3.45682" height="4.69603" transform="rotate(-8.48188 151.674 97.3936)" fill="white" stroke="#FFA640" stroke-width="1.5"/>
<path d="M163.555 108.553L164.689 125.154C164.836 127.314 163.3 129.225 161.158 129.544L158.281 129.973L155.404 130.402C153.262 130.722 151.235 129.342 150.746 127.233L146.987 111.024C145.879 106.246 149.082 101.539 153.933 100.816C158.784 100.092 163.22 103.66 163.555 108.553Z" fill="white" stroke="#FFA640" stroke-width="1.5"/>
<rect x="149.536" y="91.4483" width="5.93523" height="7.17444" rx="2.96762" transform="rotate(-8.48188 149.536 91.4483)" fill="white" stroke="#FFA640" stroke-width="1.5"/>
<path d="M156.128 93.6468L155.801 91.4535L161.8 90.5588C162.406 90.4685 162.97 90.8863 163.06 91.492C163.151 92.0976 162.733 92.6619 162.127 92.7522L156.128 93.6468Z" fill="white" stroke="#FFA640" stroke-width="1.5"/>
<path d="M157.088 116.719C156.831 116.82 156.56 116.893 156.276 116.935C154.792 117.157 153.382 116.468 152.613 115.289M158.658 110.969C157.86 109.95 156.551 109.377 155.179 109.581C153.695 109.803 152.548 110.873 152.156 112.225" stroke="#FFA640" stroke-width="1.5" stroke-linecap="round"/>
<path d="M157.394 114.576L156.016 114.782L150.5 115.604L150.043 112.54L155.559 111.718L158.316 111.306" stroke="#FFA640" stroke-width="1.5" stroke-linecap="round" stroke-linejoin="round"/>
<path d="M171.349 114.687C171.879 118.241 169.428 121.552 165.874 122.082C162.321 122.612 159.01 120.16 158.48 116.607C157.95 113.053 160.401 109.742 163.955 109.212C167.509 108.682 170.819 111.134 171.349 114.687Z" fill="white"/>
<path d="M170.608 114.798C171.077 117.942 168.908 120.871 165.764 121.34C162.62 121.809 159.691 119.64 159.222 116.496C158.753 113.352 160.922 110.423 164.066 109.954C167.21 109.485 170.139 111.654 170.608 114.798Z" stroke="#1EDC1A" stroke-width="1.5"/>
<path d="M162.183 113.079L162.731 116.756" stroke="#1EDC1A" stroke-width="1.5" stroke-linecap="round"/>
<path d="M164.296 114.643L160.619 115.192" stroke="#1EDC1A" stroke-width="1.5" stroke-linecap="round"/>
<path d="M166.38 111.826L166.745 114.277" stroke="#1EDC1A" stroke-width="1.5" stroke-linecap="round"/>
<path d="M167.789 112.869L165.338 113.235" stroke="#1EDC1A" stroke-width="1.5" stroke-linecap="round"/>
<path d="M165.704 115.686L166.252 119.363" stroke="#1EDC1A" stroke-width="1.5" stroke-linecap="round"/>
<path d="M167.816 117.251L164.139 117.799" stroke="#1EDC1A" stroke-width="1.5" stroke-linecap="round"/>
<path d="M123.054 243.367L117.655 239.07L112.368 234.862L106.856 230.475L101.457 226.177L108.861 222.415L120.419 207.894V207.894C121.327 206.754 122.988 206.565 124.128 207.473L124.763 207.978L130.162 212.275L135.561 216.573L136.196 217.078C137.336 217.986 137.525 219.646 136.617 220.787V220.787L125.059 235.308L123.054 243.367Z" fill="white"/>
<path d="M117.655 239.07L123.054 243.367L125.059 235.308L136.617 220.787M117.655 239.07L112.368 234.862L106.856 230.475M117.655 239.07V239.07C119.822 232.572 112.702 226.905 106.856 230.475V230.475M106.856 230.475L101.457 226.177L108.861 222.415L120.419 207.894M136.617 220.787V220.787C137.525 219.646 137.336 217.986 136.196 217.078L135.561 216.573L130.162 212.275L124.763 207.978L124.128 207.473C122.988 206.565 121.327 206.754 120.419 207.894V207.894M136.617 220.787L120.419 207.894" stroke="#FFA640" stroke-width="1.5" stroke-linejoin="round"/>
<path d="M123.053 243.367L125.03 235.343L127.402 232.363L128.949 230.419L132.987 233.633C133.997 234.437 133.937 235.99 132.869 236.714V236.714L123.053 243.367Z" fill="white"/>
<path d="M132.869 236.714V236.714C133.937 235.99 133.997 234.437 132.987 233.633L128.949 230.419L127.402 232.363M132.869 236.714L123.053 243.367L125.03 235.343L127.402 232.363M132.869 236.714L127.402 232.363" stroke="#FFA640" stroke-width="1.5" stroke-linejoin="round"/>
<path d="M101.458 226.177L108.834 222.451L111.206 219.471L112.753 217.527L108.715 214.313C107.705 213.509 106.205 213.916 105.739 215.119V215.119L101.458 226.177Z" fill="white"/>
<path d="M105.739 215.119V215.119C106.205 213.916 107.705 213.509 108.715 214.313L112.753 217.527L111.206 219.471M105.739 215.119L101.458 226.177L108.834 222.451L111.206 219.471M105.739 215.119L111.206 219.471" stroke="#FFA640" stroke-width="1.5" stroke-linejoin="round"/>
<path d="M111.954 203.293C114.031 200.684 117.829 200.253 120.438 202.329C123.048 204.406 123.479 208.205 121.402 210.814C119.326 213.423 115.527 213.855 112.918 211.778C110.309 209.701 109.877 205.903 111.954 203.293Z" fill="white"/>
<path d="M112.541 203.761C114.359 201.475 117.686 201.097 119.971 202.916C122.257 204.735 122.634 208.062 120.816 210.347C118.997 212.632 115.67 213.01 113.385 211.191C111.1 209.373 110.722 206.046 112.541 203.761Z" stroke="#1EDC1A" stroke-width="1.5"/>
<path d="M113.584 207.348L116.727 206.991" stroke="#1EDC1A" stroke-width="1.5" stroke-linecap="round"/>
<path d="M119.212 205.027L118.087 204.132" stroke="#1EDC1A" stroke-width="1.5" stroke-linecap="round"/>
<path d="M113.992 210.428L113.275 211.328" stroke="#1EDC1A" stroke-width="1.5" stroke-linecap="round"/>
<path d="M117.241 212.467L117.112 211.324" stroke="#1EDC1A" stroke-width="1.5" stroke-linecap="round"/>
<path d="M120.85 210.467L119.95 209.751" stroke="#1EDC1A" stroke-width="1.5" stroke-linecap="round"/>
<path d="M113.315 204.469L112.415 203.753" stroke="#1EDC1A" stroke-width="1.5" stroke-linecap="round"/>
<circle cx="116.767" cy="206.941" r="1.15014" transform="rotate(-141.482 116.767 206.941)" fill="#1EDC1A"/>
<path d="M131.755 205.458L136.452 211.402L137.526 210.052L142.988 214.399L141.913 215.749L140.839 217.098L135.378 212.751L130.68 206.808L123.916 201.423L124.99 200.074L131.755 205.458Z" fill="white"/>
<path d="M141.913 215.749L136.452 211.402M141.913 215.749L142.988 214.399L137.526 210.052L136.452 211.402M141.913 215.749L140.839 217.098L135.378 212.751L130.68 206.808L123.916 201.423L124.99 200.074L131.755 205.458L136.452 211.402" stroke="#FFA640" stroke-width="1.5" stroke-linecap="round" stroke-linejoin="round"/>
<path d="M140.839 217.099L137.35 221.483C133.628 218.521 130.3 218.447 129.101 218.78C129.227 217.623 129.411 215.067 129.209 213.114C129.039 211.468 128.565 210.421 127.855 209.29C126.302 206.818 123.923 203.843 122.928 202.665L123.916 201.423L130.711 206.832L135.44 212.801L137.577 214.502L140.839 217.099Z" fill="white"/>
<path d="M137.577 214.502L140.839 217.099L137.35 221.483C133.628 218.521 130.3 218.447 129.101 218.78C129.227 217.623 129.411 215.067 129.209 213.114M137.577 214.502C137.13 215.065 135.341 215.982 132.885 214.027C131.556 212.969 130.112 212.49 129.209 213.114M137.577 214.502L135.44 212.801L130.711 206.832L123.916 201.423L122.928 202.665C123.923 203.843 126.302 206.818 127.855 209.29C128.565 210.421 129.039 211.468 129.209 213.114" stroke="#FFA640" stroke-width="1.5" stroke-linecap="round" stroke-linejoin="round"/>
<path d="M137.104 207.51L141.802 213.454L142.876 212.104L148.337 216.451L147.263 217.801L146.188 219.151L140.727 214.804L136.03 208.86L129.265 203.476L130.34 202.126L137.104 207.51Z" fill="white"/>
<path d="M147.263 217.801L141.802 213.454M147.263 217.801L148.337 216.451L142.876 212.104L141.802 213.454M147.263 217.801L146.188 219.151L140.727 214.804L136.03 208.86L129.265 203.476L130.34 202.126L137.104 207.51L141.802 213.454" stroke="#FFA640" stroke-width="1.5" stroke-linecap="round" stroke-linejoin="round"/>
<path d="M146.189 219.151L142.699 223.536C138.977 220.573 135.649 220.5 134.45 220.833C134.576 219.675 134.76 217.12 134.559 215.167C134.389 213.521 133.914 212.473 133.204 211.343C131.652 208.871 129.273 205.896 128.278 204.718L129.266 203.476L136.061 208.885L140.79 214.854L142.927 216.555L146.189 219.151Z" fill="white"/>
<path d="M142.927 216.555L146.189 219.151L142.699 223.536C138.977 220.573 135.649 220.5 134.45 220.833C134.576 219.675 134.76 217.12 134.559 215.167M142.927 216.555C142.479 217.117 140.691 218.035 138.234 216.079C136.905 215.021 135.461 214.543 134.559 215.167M142.927 216.555L140.79 214.854L136.061 208.885L129.266 203.476L128.278 204.718C129.273 205.896 131.652 208.871 133.204 211.343C133.914 212.473 134.389 213.521 134.559 215.167" stroke="#FFA640" stroke-width="1.5" stroke-linecap="round" stroke-linejoin="round"/>
<path fill-rule="evenodd" clip-rule="evenodd" d="M180.357 231.035C180.671 229.63 180.248 228.1 179.112 227.055C177.73 225.783 175.72 225.622 174.18 226.526L166.846 219.775C167.521 218.197 167.171 216.298 165.836 215.069C164.142 213.51 161.505 213.619 159.947 215.313C158.388 217.006 158.497 219.643 160.191 221.202C161.526 222.43 163.446 222.623 164.964 221.819L172.388 228.653C171.808 230.196 172.18 232.003 173.467 233.188C174.602 234.233 176.16 234.528 177.534 234.1L175.771 232.478C174.924 231.698 174.87 230.38 175.649 229.533C176.429 228.687 177.747 228.632 178.594 229.411L180.357 231.035ZM164.546 219.546L162.557 220.168L161.024 218.757L161.479 216.724L163.468 216.101L165.001 217.513L164.546 219.546Z" fill="white"/>
<path d="M180.357 231.035L179.849 231.586C180.046 231.768 180.325 231.83 180.581 231.75C180.837 231.67 181.031 231.46 181.089 231.198L180.357 231.035ZM174.18 226.526L173.672 227.078C173.915 227.302 174.275 227.34 174.56 227.173L174.18 226.526ZM166.846 219.775L166.156 219.48C166.031 219.773 166.104 220.112 166.338 220.327L166.846 219.775ZM164.964 221.819L165.472 221.268C165.238 221.052 164.894 221.008 164.613 221.157L164.964 221.819ZM172.388 228.653L173.09 228.917C173.198 228.631 173.121 228.308 172.896 228.101L172.388 228.653ZM177.534 234.1L177.757 234.816C178.013 234.736 178.207 234.526 178.265 234.265C178.324 234.003 178.239 233.73 178.042 233.548L177.534 234.1ZM175.771 232.478L176.279 231.926L175.771 232.478ZM178.594 229.411L178.086 229.963L178.594 229.411ZM162.557 220.168L162.049 220.72C162.246 220.902 162.525 220.964 162.781 220.884L162.557 220.168ZM164.546 219.546L164.77 220.262C165.026 220.182 165.219 219.972 165.278 219.71L164.546 219.546ZM161.024 218.757L160.292 218.593C160.233 218.855 160.319 219.127 160.516 219.309L161.024 218.757ZM161.479 216.724L161.255 216.008C161 216.088 160.806 216.298 160.748 216.56L161.479 216.724ZM163.468 216.101L163.976 215.55C163.779 215.368 163.5 215.306 163.244 215.386L163.468 216.101ZM165.001 217.513L165.733 217.677C165.792 217.415 165.706 217.142 165.509 216.961L165.001 217.513ZM178.604 227.607C179.535 228.463 179.883 229.717 179.625 230.871L181.089 231.198C181.459 229.543 180.961 227.737 179.62 226.503L178.604 227.607ZM174.56 227.173C175.823 226.431 177.472 226.564 178.604 227.607L179.62 226.503C177.989 225.001 175.617 224.813 173.8 225.879L174.56 227.173ZM166.338 220.327L173.672 227.078L174.688 225.974L167.354 219.224L166.338 220.327ZM167.535 220.071C168.332 218.209 167.92 215.968 166.344 214.517L165.328 215.62C166.422 216.628 166.711 218.185 166.156 219.48L167.535 220.071ZM166.344 214.517C164.345 212.677 161.234 212.806 159.395 214.805L160.498 215.82C161.777 214.432 163.939 214.342 165.328 215.62L166.344 214.517ZM159.395 214.805C157.555 216.803 157.684 219.914 159.683 221.753L160.699 220.65C159.31 219.371 159.22 217.209 160.498 215.82L159.395 214.805ZM159.683 221.753C161.259 223.204 163.525 223.429 165.315 222.482L164.613 221.157C163.368 221.816 161.792 221.657 160.699 220.65L159.683 221.753ZM172.896 228.101L165.472 221.268L164.456 222.371L171.88 229.205L172.896 228.101ZM173.975 232.636C172.921 231.666 172.614 230.184 173.09 228.917L171.686 228.389C171.002 230.208 171.44 232.341 172.959 233.74L173.975 232.636ZM177.311 233.384C176.182 233.736 174.905 233.492 173.975 232.636L172.959 233.74C174.299 234.973 176.138 235.321 177.757 234.816L177.311 233.384ZM175.263 233.03L177.026 234.652L178.042 233.548L176.279 231.926L175.263 233.03ZM175.097 229.025C174.037 230.177 174.112 231.97 175.263 233.03L176.279 231.926C175.737 231.427 175.702 230.583 176.201 230.041L175.097 229.025ZM179.102 228.86C177.95 227.8 176.157 227.874 175.097 229.025L176.201 230.041C176.7 229.499 177.544 229.464 178.086 229.963L179.102 228.86ZM180.865 230.483L179.102 228.86L178.086 229.963L179.849 231.586L180.865 230.483ZM162.781 220.884L164.77 220.262L164.322 218.83L162.333 219.453L162.781 220.884ZM160.516 219.309L162.049 220.72L163.065 219.616L161.532 218.205L160.516 219.309ZM160.748 216.56L160.292 218.593L161.756 218.921L162.211 216.888L160.748 216.56ZM163.244 215.386L161.255 216.008L161.703 217.439L163.692 216.817L163.244 215.386ZM165.509 216.961L163.976 215.55L162.96 216.653L164.493 218.064L165.509 216.961ZM165.278 219.71L165.733 217.677L164.27 217.349L163.814 219.382L165.278 219.71Z" fill="#FFA640"/>
<path d="M154.176 229.124C152.973 225.28 155.115 221.188 158.959 219.986C162.803 218.783 166.895 220.924 168.097 224.769C169.3 228.613 167.159 232.704 163.314 233.907C159.47 235.11 155.379 232.968 154.176 229.124Z" fill="white"/>
<path d="M154.892 228.9C153.813 225.451 155.734 221.78 159.183 220.701C162.632 219.622 166.303 221.544 167.382 224.993C168.461 228.442 166.539 232.112 163.09 233.191C159.641 234.27 155.971 232.349 154.892 228.9Z" stroke="#1EDC1A" stroke-width="1.5"/>
<path d="M162.177 230.261L160.103 223.632" stroke="#1EDC1A" stroke-width="1.5" stroke-linecap="round"/>
<path d="M157.825 227.984L164.454 225.91" stroke="#1EDC1A" stroke-width="1.5" stroke-linecap="round"/>
<path d="M159.528 230.023L162.749 223.869" stroke="#1EDC1A" stroke-width="1.5" stroke-linecap="round"/>
<path d="M158.062 225.336L164.216 228.557" stroke="#1EDC1A" stroke-width="1.5" stroke-linecap="round"/>
<circle cx="161.14" cy="226.946" r="2.37578" transform="rotate(162.628 161.14 226.946)" fill="white" stroke="#1EDC1A" stroke-width="1.5"/>
<path d="M170.685 245.248L164.553 247.167" stroke="#FFA640" stroke-width="1.5" stroke-linecap="round" stroke-linejoin="round"/>
<rect x="177.205" y="245.335" width="5.44619" height="4.05695" rx="2.02847" transform="rotate(162.628 177.205 245.335)" fill="white" stroke="#FFA640" stroke-width="1.5"/>
<path d="M110.189 170.787C109.777 170.834 109.482 171.206 109.529 171.617C109.576 172.029 109.948 172.324 110.36 172.277L117.399 171.468L117.841 175.316L112.359 175.946L112.242 175.959L112.135 176.007L108.508 177.651C103.754 179.804 98.1978 179.073 94.1663 175.784L93.894 173.413L93.6216 171.043C96.8023 166.925 102.048 164.953 107.167 165.973L111.071 166.751L111.187 166.774L111.304 166.76L116.786 166.13L117.228 169.978L110.189 170.787Z" fill="white" stroke="#FFA640" stroke-width="1.5" stroke-linecap="round"/>
<rect x="112.958" y="171.971" width="9.8428" height="4.4699" rx="2.23495" transform="rotate(-96.553 112.958 171.971)" fill="white" stroke="#FFA640" stroke-width="1.5"/>
<path d="M84.6874 170.564C83.8621 171.603 82.221 171.359 81.7334 170.125C81.2458 168.89 82.2774 167.591 83.5903 167.786C84.9032 167.981 85.5127 169.524 84.6874 170.564Z" stroke="#FFA640" stroke-width="1.5"/>
<path d="M84.3554 181.396L85.8832 180.792C86.7782 180.439 86.9549 179.249 86.2013 178.651L84.9147 177.629C84.1611 177.031 83.0424 177.473 82.9011 178.425L82.6598 180.05C82.5184 181.002 83.4604 181.749 84.3554 181.396Z" fill="white" stroke="#FFA640" stroke-width="1.5"/>
<circle cx="88.6606" cy="173.961" r="6.00099" transform="rotate(-96.553 88.6606 173.961)" fill="white" stroke="#FFA640" stroke-width="1.5"/>
<circle cx="90.0952" cy="173.732" r="0.75712" transform="rotate(-96.553 90.0952 173.732)" fill="#FFA640"/>
<path d="M90.4698 173.689C91.3006 173.593 92.0515 174.189 92.1469 175.02" stroke="#FFA640" stroke-width="1.5" stroke-linecap="round"/>
<path d="M91.8015 172.013C91.8969 172.843 91.3008 173.594 90.47 173.69" stroke="#FFA640" stroke-width="1.5" stroke-linecap="round"/>
<ellipse cx="88.0017" cy="176.513" rx="0.504747" ry="1.00949" transform="rotate(-96.553 88.0017 176.513)" fill="#FFA640"/>
<ellipse cx="87.4243" cy="171.499" rx="0.504747" ry="1.00949" transform="rotate(-96.553 87.4243 171.499)" fill="#FFA640"/>
<path d="M92.9688 181.352L90.7437 175.719" stroke="#FFA640" stroke-width="1.5" stroke-linecap="round" stroke-linejoin="round"/>
<path d="M89.8738 181.759L90.7635 175.768" stroke="#FFA640" stroke-width="1.5" stroke-linecap="round" stroke-linejoin="round"/>
<path d="M91.1675 165.688L90.2777 171.679" stroke="#FFA640" stroke-width="1.5" stroke-linecap="round" stroke-linejoin="round"/>
<path d="M88.0618 165.991L90.2869 171.625" stroke="#FFA640" stroke-width="1.5" stroke-linecap="round" stroke-linejoin="round"/>
<path d="M110.982 194.041C108.573 193.757 106.675 191.853 106.398 189.443L106.002 185.994L105.606 182.546C105.329 180.135 106.745 177.851 109.028 177.027V177.027L110.326 176.559L115.519 174.685L117.836 194.85L112.353 194.203L110.982 194.041V194.041Z" fill="white"/>
<path d="M110.982 194.041V194.041C108.573 193.757 106.675 191.853 106.398 189.443L106.002 185.994L105.606 182.546C105.329 180.135 106.745 177.851 109.028 177.027V177.027M110.982 194.041L109.028 177.027M110.982 194.041L112.353 194.203L117.836 194.85L115.519 174.685L110.326 176.559L109.028 177.027" stroke="#FFA640" stroke-width="1.5" stroke-linejoin="round"/>
<rect x="118.105" y="195.866" width="22.3796" height="2.08194" rx="1.04097" transform="rotate(-96.553 118.105 195.866)" fill="white" stroke="#FFA640" stroke-width="1.5"/>
<path d="M113.75 186.756L113.376 183.494" stroke="#FFA640" stroke-width="1.5" stroke-linecap="round" stroke-linejoin="round"/>
<circle cx="113.076" cy="187.435" r="0.746237" transform="rotate(-96.553 113.076 187.435)" fill="#FFA640"/>
<circle cx="114.56" cy="187.264" r="0.746237" transform="rotate(-96.553 114.56 187.264)" fill="#FFA640"/>
<circle cx="112.565" cy="182.986" r="0.746237" transform="rotate(-96.553 112.565 182.986)" fill="#FFA640"/>
<circle cx="114.049" cy="182.816" r="0.746237" transform="rotate(-96.553 114.049 182.816)" fill="#FFA640"/>
<path d="M104.499 158.524C107.938 158.129 111.047 160.597 111.442 164.036C111.837 167.476 109.369 170.584 105.93 170.979C102.49 171.374 99.3819 168.906 98.9868 165.467C98.5917 162.028 101.06 158.919 104.499 158.524Z" fill="white"/>
<path d="M104.584 159.269C107.612 158.922 110.349 161.094 110.697 164.122C111.044 167.15 108.872 169.886 105.844 170.234C102.816 170.582 100.08 168.409 99.7319 165.382C99.3841 162.354 101.557 159.617 104.584 159.269Z" stroke="#1EDC1A" stroke-width="1.5"/>
<path d="M107.143 164.53L106.588 164.026C106.444 164.185 106.374 164.398 106.398 164.612C106.421 164.826 106.535 165.019 106.711 165.143L107.143 164.53ZM107.74 166.029L108.35 166.465L108.362 166.448L108.373 166.431L107.74 166.029ZM107.384 162.935L107.91 162.4L107.896 162.386L107.88 162.372L107.384 162.935ZM106.598 165.941C106.225 165.984 105.617 165.609 105.514 164.717L104.024 164.888C104.185 166.29 105.291 167.601 106.769 167.431L106.598 165.941ZM105.514 164.717C105.412 163.825 105.919 163.322 106.292 163.28L106.121 161.789C104.643 161.959 103.863 163.487 104.024 164.888L105.514 164.717ZM107.143 164.53C106.711 165.143 106.711 165.143 106.711 165.143C106.711 165.143 106.71 165.143 106.71 165.143C106.71 165.142 106.71 165.142 106.71 165.142C106.709 165.142 106.709 165.142 106.709 165.141C106.708 165.141 106.708 165.141 106.708 165.141C106.707 165.14 106.708 165.141 106.709 165.142C106.712 165.144 106.718 165.149 106.727 165.156C106.745 165.169 106.772 165.192 106.805 165.221C106.874 165.282 106.953 165.361 107.016 165.446C107.082 165.536 107.104 165.596 107.11 165.622C107.11 165.627 107.114 165.616 107.106 165.628L108.373 166.431C108.864 165.657 108.491 164.918 108.222 164.554C108.077 164.358 107.918 164.202 107.8 164.098C107.74 164.045 107.688 164.003 107.649 163.972C107.63 163.957 107.613 163.945 107.601 163.936C107.595 163.931 107.589 163.927 107.585 163.924C107.583 163.922 107.581 163.921 107.579 163.92C107.578 163.919 107.578 163.919 107.577 163.918C107.577 163.918 107.576 163.918 107.576 163.918C107.576 163.918 107.576 163.917 107.576 163.917C107.575 163.917 107.575 163.917 107.143 164.53ZM107.129 165.594C106.973 165.813 106.783 165.92 106.598 165.941L106.769 167.431C107.442 167.354 107.989 166.971 108.35 166.465L107.129 165.594ZM106.292 163.28C106.477 163.258 106.687 163.32 106.888 163.497L107.88 162.372C107.413 161.961 106.794 161.712 106.121 161.789L106.292 163.28ZM106.858 163.469C106.872 163.483 106.866 163.477 106.867 163.479C106.868 163.505 106.86 163.567 106.816 163.667C106.774 163.763 106.715 163.857 106.662 163.931C106.637 163.966 106.615 163.993 106.601 164.011C106.594 164.019 106.589 164.025 106.587 164.027C106.585 164.029 106.585 164.029 106.585 164.029C106.585 164.029 106.586 164.029 106.586 164.028C106.586 164.028 106.587 164.027 106.587 164.027C106.587 164.027 106.587 164.027 106.588 164.026C106.588 164.026 106.588 164.026 106.588 164.026C106.588 164.026 106.588 164.026 107.143 164.53C107.698 165.035 107.698 165.034 107.699 165.034C107.699 165.034 107.699 165.034 107.699 165.034C107.699 165.033 107.699 165.033 107.7 165.033C107.7 165.032 107.701 165.032 107.702 165.031C107.703 165.029 107.705 165.028 107.706 165.026C107.71 165.022 107.714 165.017 107.719 165.011C107.73 164.999 107.743 164.983 107.759 164.964C107.79 164.926 107.832 164.873 107.879 164.808C107.971 164.68 108.092 164.493 108.19 164.268C108.374 163.847 108.566 163.045 107.91 162.4L106.858 163.469Z" fill="#1EDC1A"/>
<circle cx="102.854" cy="163.821" r="0.895484" transform="rotate(-96.553 102.854 163.821)" fill="#1EDC1A"/>
<circle cx="103.968" cy="161.741" r="0.895484" transform="rotate(-96.553 103.968 161.741)" fill="#1EDC1A"/>
<circle cx="103.126" cy="166.193" r="0.895484" transform="rotate(-96.553 103.126 166.193)" fill="#1EDC1A"/>
<circle cx="104.683" cy="167.968" r="0.895484" transform="rotate(-96.553 104.683 167.968)" fill="#1EDC1A"/>
</svg>
