<svg width="151" height="216" viewBox="0 0 151 216" fill="none" xmlns="http://www.w3.org/2000/svg">
<circle cx="107.767" cy="108.887" r="20.6741" fill="white"/>
<path d="M128.441 108.887C128.441 120.305 119.185 129.561 107.767 129.561C96.3494 129.561 87.0933 120.305 87.0933 108.887C87.0933 97.4687 96.3494 88.2126 107.767 88.2126C119.185 88.2126 128.441 97.4687 128.441 108.887ZM95.4682 108.887C95.4682 115.679 100.975 121.186 107.767 121.186C114.56 121.186 120.067 115.679 120.067 108.887C120.067 102.094 114.56 96.5875 107.767 96.5875C100.975 96.5875 95.4682 102.094 95.4682 108.887Z" fill="white" stroke="#1EDC1A" stroke-width="2"/>
<path d="M101.051 83.1682C107.719 81.4266 114.803 82.3429 120.808 85.7238C126.814 89.1047 131.271 94.686 133.241 101.29L119.552 105.372C118.641 102.317 116.579 99.735 113.801 98.171C111.023 96.6069 107.745 96.183 104.661 96.9887L101.051 83.1682Z" fill="white"/>
<path d="M114.433 134.618C107.761 136.346 100.68 135.415 94.681 132.022C88.6824 128.629 84.2363 123.039 82.2803 116.43L95.9771 112.376C96.8819 115.434 98.9388 118.02 101.714 119.589C104.489 121.159 107.765 121.59 110.851 120.79L114.433 134.618Z" fill="white"/>
<path d="M101.051 83.1682C107.719 81.4266 114.803 82.3429 120.808 85.7238C126.814 89.1047 131.271 94.686 133.241 101.29L119.552 105.372C118.641 102.317 116.579 99.735 113.801 98.171C111.023 96.6069 107.745 96.183 104.661 96.9887L101.051 83.1682Z" stroke="#1EDC1A" stroke-width="2"/>
<path d="M114.433 134.618C107.761 136.346 100.68 135.415 94.681 132.022C88.6824 128.629 84.2363 123.039 82.2803 116.43L95.9771 112.376C96.8819 115.434 98.9388 118.02 101.714 119.589C104.489 121.159 107.765 121.59 110.851 120.79L114.433 134.618Z" stroke="#1EDC1A" stroke-width="2"/>
<circle cx="107.767" cy="104.456" r="2.44568" stroke="#1EDC1A" stroke-width="2"/>
<path d="M101.876 114.016C101.876 112.349 102.495 111.438 103.414 110.88C104.423 110.266 105.92 110.004 107.768 110.004C109.615 110.004 111.112 110.266 112.121 110.88C113.04 111.438 113.659 112.349 113.659 114.016C113.659 115.072 112.848 115.88 111.762 115.88L103.774 115.88C102.687 115.88 101.876 115.072 101.876 114.016Z" stroke="#1EDC1A" stroke-width="2" stroke-linecap="round"/>
<path d="M139.518 119.224C139.518 124.933 134.89 129.561 129.181 129.561C123.472 129.561 118.844 124.933 118.844 119.224C118.844 113.515 123.472 108.886 129.181 108.886C134.89 108.886 139.518 113.515 139.518 119.224Z" fill="#1EDC1A"/>
<path d="M128.706 114.78C128.856 114.32 129.508 114.32 129.658 114.78L130.396 117.053C130.463 117.259 130.655 117.398 130.871 117.398L133.261 117.398C133.745 117.398 133.947 118.018 133.555 118.303L131.622 119.707C131.446 119.835 131.373 120.06 131.44 120.266L132.178 122.539C132.328 122.999 131.801 123.382 131.409 123.098L129.476 121.693C129.301 121.566 129.063 121.566 128.888 121.693L126.955 123.098C126.563 123.382 126.036 122.999 126.186 122.539L126.924 120.266C126.991 120.06 126.918 119.835 126.742 119.707L124.809 118.303C124.417 118.018 124.619 117.398 125.103 117.398L127.493 117.398C127.709 117.398 127.901 117.259 127.968 117.053L128.706 114.78Z" fill="white"/>
<mask id="path-11-inside-1_4_296" fill="white">
<path fill-rule="evenodd" clip-rule="evenodd" d="M126.786 45.9928C126.193 46.1264 125.562 46.1336 124.929 45.9908C122.653 45.4769 121.225 43.215 121.738 40.9388C122.252 38.6626 124.514 37.234 126.79 37.7479C127.423 37.8907 127.99 38.1684 128.468 38.5439C129.061 38.4103 129.692 38.4031 130.325 38.5459C132.601 39.0598 134.029 41.3216 133.515 43.5978C133.002 45.8741 130.74 47.3027 128.464 46.7888C127.831 46.646 127.264 46.3683 126.786 45.9928Z"/>
</mask>
<path fill-rule="evenodd" clip-rule="evenodd" d="M126.786 45.9928C126.193 46.1264 125.562 46.1336 124.929 45.9908C122.653 45.4769 121.225 43.215 121.738 40.9388C122.252 38.6626 124.514 37.234 126.79 37.7479C127.423 37.8907 127.99 38.1684 128.468 38.5439C129.061 38.4103 129.692 38.4031 130.325 38.5459C132.601 39.0598 134.029 41.3216 133.515 43.5978C133.002 45.8741 130.74 47.3027 128.464 46.7888C127.831 46.646 127.264 46.3683 126.786 45.9928Z" fill="white"/>
<path d="M126.786 45.9928L127.404 45.2063L127.03 44.9128L126.566 45.0173L126.786 45.9928ZM128.468 38.5439L127.85 39.3303L128.224 39.6239L128.688 39.5194L128.468 38.5439ZM126.566 45.0173C126.115 45.1189 125.634 45.1247 125.15 45.0153L124.709 46.9662C125.489 47.1424 126.271 47.1339 127.006 46.9683L126.566 45.0173ZM125.15 45.0153C123.412 44.6231 122.322 42.8966 122.714 41.1591L120.763 40.7186C120.127 43.5335 121.894 46.3307 124.709 46.9662L125.15 45.0153ZM122.714 41.1591C123.106 39.4216 124.833 38.3311 126.57 38.7233L127.011 36.7724C124.196 36.1369 121.399 37.9037 120.763 40.7186L122.714 41.1591ZM126.57 38.7233C127.055 38.8327 127.487 39.0446 127.85 39.3303L129.086 37.7574C128.493 37.2922 127.791 36.9486 127.011 36.7724L126.57 38.7233ZM128.688 39.5194C129.139 39.4178 129.62 39.4119 130.104 39.5213L130.545 37.5704C129.765 37.3943 128.983 37.4028 128.248 37.5683L128.688 39.5194ZM130.104 39.5213C131.842 39.9136 132.932 41.6401 132.54 43.3776L134.491 43.8181C135.126 41.0031 133.36 38.206 130.545 37.5704L130.104 39.5213ZM132.54 43.3776C132.148 45.1151 130.421 46.2056 128.684 45.8133L128.243 47.7642C131.058 48.3998 133.855 46.633 134.491 43.8181L132.54 43.3776ZM128.684 45.8133C128.199 45.7039 127.767 45.492 127.404 45.2063L126.168 46.7792C126.761 47.2445 127.463 47.5881 128.243 47.7642L128.684 45.8133Z" fill="#FFA640" mask="url(#path-11-inside-1_4_296)"/>
<path d="M128.625 37.8523L128.359 39.0299" stroke="#FFA640" stroke-linecap="round"/>
<path d="M138.444 37.231L138.178 38.4085" stroke="#FFA640" stroke-linecap="round"/>
<path fill-rule="evenodd" clip-rule="evenodd" d="M129.378 48.8793C129.359 48.8752 129.339 48.8709 129.319 48.8665C127.693 48.4994 126.672 46.8838 127.04 45.2579C127.303 44.0923 128.207 43.2379 129.298 42.9828C129.304 42.793 129.328 42.6011 129.371 42.4089C129.717 40.8762 131.173 39.8815 132.7 40.0801C133.141 38.5574 134.697 37.6232 136.264 37.9768C137.114 38.1689 137.799 38.7028 138.207 39.401C138.874 38.9454 139.722 38.7576 140.573 38.9497C142.148 39.3054 143.155 40.8331 142.882 42.4066C144.131 42.9212 144.865 44.2754 144.557 45.6373C144.505 45.8691 144.425 46.0877 144.323 46.2906C145.221 46.9309 145.696 48.0686 145.438 49.2117C145.094 50.7323 143.583 51.6868 142.063 51.3434C141.962 51.3208 141.865 51.2931 141.77 51.2607C140.195 53.4651 137.4 54.6315 134.592 53.9974C131.938 53.3984 129.986 51.3529 129.378 48.8793Z" fill="white"/>
<path d="M129.378 48.8793L129.864 48.76C129.818 48.5725 129.668 48.4283 129.479 48.3895L129.378 48.8793ZM129.298 42.9828L129.412 43.4696C129.632 43.418 129.79 43.2247 129.797 42.9984L129.298 42.9828ZM132.7 40.0801L132.636 40.576C132.881 40.6078 133.112 40.4561 133.181 40.2189L132.7 40.0801ZM138.207 39.401L137.775 39.6529C137.845 39.7728 137.961 39.8582 138.096 39.8888C138.232 39.9193 138.374 39.8923 138.488 39.814L138.207 39.401ZM142.882 42.4066L142.39 42.3212C142.35 42.552 142.475 42.7797 142.692 42.8689L142.882 42.4066ZM144.323 46.2906L143.877 46.0652C143.765 46.2856 143.831 46.5543 144.032 46.6977L144.323 46.2906ZM141.77 51.2607L141.931 50.7875C141.722 50.7162 141.491 50.7904 141.363 50.9701L141.77 51.2607ZM129.479 48.3895C129.462 48.3861 129.446 48.3825 129.429 48.3787L129.209 49.3542C129.232 49.3594 129.255 49.3644 129.278 49.3691L129.479 48.3895ZM129.429 48.3787C128.072 48.0725 127.221 46.7245 127.527 45.368L126.552 45.1478C126.124 47.043 127.313 48.9263 129.209 49.3542L129.429 48.3787ZM127.527 45.368C127.747 44.3963 128.501 43.6828 129.412 43.4696L129.184 42.4959C127.914 42.793 126.859 43.7884 126.552 45.1478L127.527 45.368ZM129.797 42.9984C129.802 42.8403 129.822 42.68 129.859 42.5191L128.883 42.2988C128.833 42.5222 128.805 42.7458 128.798 42.9672L129.797 42.9984ZM129.859 42.5191C130.147 41.2405 131.362 40.4103 132.636 40.576L132.765 39.5843C130.983 39.3527 129.287 40.5119 128.883 42.2988L129.859 42.5191ZM133.181 40.2189C133.548 38.9489 134.847 38.1695 136.154 38.4646L136.374 37.4891C134.548 37.0768 132.733 38.1659 132.22 39.9413L133.181 40.2189ZM136.154 38.4646C136.863 38.6248 137.434 39.0695 137.775 39.6529L138.639 39.1492C138.164 38.336 137.365 37.713 136.374 37.4891L136.154 38.4646ZM138.488 39.814C139.046 39.4334 139.753 39.2772 140.463 39.4374L140.683 38.462C139.691 38.2381 138.702 38.4575 137.925 38.988L138.488 39.814ZM140.463 39.4374C141.777 39.7341 142.617 41.0088 142.39 42.3212L143.375 42.492C143.693 40.6574 142.519 38.8766 140.683 38.462L140.463 39.4374ZM142.692 42.8689C143.719 43.2922 144.322 44.407 144.069 45.5271L145.045 45.7474C145.407 44.1438 144.543 42.5502 143.073 41.9443L142.692 42.8689ZM144.069 45.5271C144.026 45.7186 143.961 45.8986 143.877 46.0652L144.769 46.5161C144.89 46.2769 144.983 46.0195 145.045 45.7474L144.069 45.5271ZM144.032 46.6977C144.772 47.2252 145.162 48.1617 144.95 49.1015L145.925 49.3218C146.229 47.9755 145.669 46.6367 144.613 45.8836L144.032 46.6977ZM144.95 49.1015C144.668 50.3529 143.424 51.1382 142.173 50.8557L141.953 51.8312C143.743 52.2353 145.521 51.1118 145.925 49.3218L144.95 49.1015ZM142.173 50.8557C142.09 50.837 142.009 50.8142 141.931 50.7875L141.608 51.7339C141.72 51.7721 141.835 51.8046 141.953 51.8312L142.173 50.8557ZM141.363 50.9701C139.901 53.0165 137.307 54.0979 134.702 53.5097L134.482 54.4852C137.493 55.1651 140.489 53.9137 142.177 51.5513L141.363 50.9701ZM134.702 53.5097C132.24 52.954 130.428 51.0567 129.864 48.76L128.893 48.9986C129.544 51.6491 131.636 53.8428 134.482 54.4852L134.702 53.5097Z" fill="#FFA640"/>
<path d="M139.887 44.2894C140.181 42.9887 139.364 41.6962 138.064 41.4026C136.763 41.1089 135.47 41.9253 135.177 43.226" stroke="#FFA640" stroke-linecap="round"/>
<path d="M132.023 45.953C132.317 44.6523 131.501 43.3598 130.2 43.0661C128.899 42.7725 127.607 43.5888 127.313 44.8895" stroke="#FFA640" stroke-linecap="round"/>
<path d="M149.647 47.3998L138.181 59.8159C136.559 61.5723 133.82 61.6812 132.064 60.0592C130.307 58.4372 130.199 55.6985 131.821 53.9422L143.287 41.5261C144.909 39.7697 147.647 39.6608 149.404 41.2828C151.16 42.9048 151.269 45.6435 149.647 47.3998Z" fill="white" stroke="#FFA640"/>
<path d="M142.655 42.5859L146.202 45.862" stroke="#FFA640" stroke-linecap="round"/>
<path d="M137.742 47.9067L141.289 51.1828" stroke="#FFA640" stroke-linecap="round"/>
<path d="M135.283 50.5674L138.83 53.8435" stroke="#FFA640" stroke-linecap="round"/>
<path d="M132.825 53.2283L136.373 56.5044" stroke="#FFA640" stroke-linecap="round"/>
<path d="M155.793 50.6288L144.327 63.0449C142.705 64.8013 139.966 64.9102 138.21 63.2882C136.453 61.6662 136.344 58.9275 137.966 57.1712L149.433 44.7551C151.055 42.9987 153.793 42.8898 155.55 44.5118C157.306 46.1338 157.415 48.8725 155.793 50.6288Z" fill="white" stroke="#FFA640"/>
<path d="M148.801 45.8149L152.348 49.091" stroke="#FFA640" stroke-linecap="round"/>
<path d="M146.343 48.4751L149.891 51.7512" stroke="#FFA640" stroke-linecap="round"/>
<path d="M143.887 51.1357L147.435 54.4118" stroke="#FFA640" stroke-linecap="round"/>
<path d="M141.428 53.7964L144.976 57.0725" stroke="#FFA640" stroke-linecap="round"/>
<path d="M138.971 56.4573L142.519 59.7334" stroke="#FFA640" stroke-linecap="round"/>
<mask id="path-30-inside-2_4_296" fill="white">
<path fill-rule="evenodd" clip-rule="evenodd" d="M139.102 54.1985C141.168 55.284 143.723 54.4894 144.808 52.4238C145.894 50.3581 145.099 47.8036 143.033 46.7181C142.46 46.4167 141.849 46.2602 141.242 46.2357C140.877 45.7497 140.402 45.335 139.828 45.0336C137.762 43.9481 135.208 44.7427 134.122 46.8083C133.037 48.8739 133.831 51.4285 135.897 52.514C136.471 52.8154 137.082 52.9719 137.689 52.9964C138.053 53.4824 138.529 53.8971 139.102 54.1985Z"/>
</mask>
<path fill-rule="evenodd" clip-rule="evenodd" d="M139.102 54.1985C141.168 55.284 143.723 54.4894 144.808 52.4238C145.894 50.3581 145.099 47.8036 143.033 46.7181C142.46 46.4167 141.849 46.2602 141.242 46.2357C140.877 45.7497 140.402 45.335 139.828 45.0336C137.762 43.9481 135.208 44.7427 134.122 46.8083C133.037 48.8739 133.831 51.4285 135.897 52.514C136.471 52.8154 137.082 52.9719 137.689 52.9964C138.053 53.4824 138.529 53.8971 139.102 54.1985Z" fill="white"/>
<path d="M141.242 46.2357L140.442 46.8357L140.727 47.2157L141.201 47.2349L141.242 46.2357ZM137.689 52.9964L138.489 52.3964L138.204 52.0164L137.729 51.9972L137.689 52.9964ZM143.923 51.9586C143.094 53.5354 141.144 54.1419 139.568 53.3133L138.637 55.0837C141.192 56.4261 144.351 55.4435 145.693 52.889L143.923 51.9586ZM142.568 47.6033C144.145 48.4319 144.752 50.3818 143.923 51.9586L145.693 52.889C147.036 50.3345 146.053 47.1753 143.499 45.8329L142.568 47.6033ZM141.201 47.2349C141.663 47.2535 142.129 47.3724 142.568 47.6033L143.499 45.8329C142.791 45.461 142.034 45.2669 141.282 45.2365L141.201 47.2349ZM139.363 45.9188C139.802 46.1498 140.164 46.4659 140.442 46.8357L142.042 45.6357C141.59 45.0334 141.001 44.5203 140.293 44.1484L139.363 45.9188ZM135.008 47.2735C135.836 45.6967 137.786 45.0902 139.363 45.9188L140.293 44.1484C137.739 42.806 134.58 43.7886 133.237 46.3431L135.008 47.2735ZM136.362 51.6288C134.785 50.8002 134.179 48.8502 135.008 47.2735L133.237 46.3431C131.895 48.8976 132.877 52.0568 135.432 53.3992L136.362 51.6288ZM137.729 51.9972C137.267 51.9786 136.802 51.8597 136.362 51.6288L135.432 53.3992C136.14 53.7711 136.896 53.9652 137.648 53.9956L137.729 51.9972ZM139.568 53.3133C139.128 53.0823 138.766 52.7662 138.489 52.3964L136.889 53.5964C137.341 54.1987 137.93 54.7118 138.637 55.0837L139.568 53.3133Z" fill="#FFA640" mask="url(#path-30-inside-2_4_296)"/>
<path d="M149.331 56.5599L150.844 56.2201L140.042 73.4841C138.301 76.2658 134.711 77.2359 131.806 75.7095L124.393 71.8136L116.979 67.9176C114.074 66.3912 112.837 62.884 114.141 59.8728L122.232 41.1841L122.81 42.6228C123.492 44.3206 125.305 45.2731 127.09 44.8721C128.397 44.5786 129.724 45.2759 130.224 46.5187C130.906 48.2165 132.719 49.1691 134.504 48.7681C135.811 48.4745 137.138 49.1718 137.637 50.4146C138.32 52.1124 140.132 53.065 141.918 52.664C143.224 52.3704 144.551 53.0678 145.051 54.3106C145.733 56.0083 147.546 56.9609 149.331 56.5599Z" fill="white" stroke="#FFA640"/>
<path d="M136.374 49.0137L125.914 68.9168C125.1 70.466 125.696 72.3819 127.245 73.1961V73.1961" stroke="#FFA640" stroke-linecap="round"/>
<path d="M142.452 55.6162L134.134 71.4452" stroke="#FFA640" stroke-linecap="round"/>
<path d="M150.38 70.6931C148.752 73.7916 144.92 74.9834 141.822 73.3551C138.723 71.7268 137.532 67.895 139.16 64.7966C140.788 61.6981 144.62 60.5063 147.718 62.1345C150.817 63.7628 152.009 67.5946 150.38 70.6931Z" fill="white"/>
<path d="M149.938 70.4605C148.438 73.3145 144.909 74.4123 142.054 72.9125C139.2 71.4127 138.103 67.8832 139.602 65.0291C141.102 62.1751 144.632 61.0773 147.486 62.5772C150.34 64.077 151.438 67.6065 149.938 70.4605Z" stroke="#1EDC1A"/>
<path d="M142.301 67.2505L140.897 69.922" stroke="#1EDC1A" stroke-linecap="round"/>
<path d="M144.357 66.163C143.907 67.0179 143.025 67.2852 142.446 66.9808C141.867 66.6763 141.587 65.7984 142.036 64.9435C142.485 64.0887 143.367 63.8214 143.947 64.1258C144.526 64.4302 144.806 65.3082 144.357 66.163Z" stroke="#1EDC1A"/>
<path d="M147.446 66.5444L144.638 71.8876" stroke="#1EDC1A" stroke-linecap="round"/>
<path d="M146.3 65.4805L145.598 66.8162C145.21 67.554 145.494 68.4663 146.232 68.854V68.854C146.969 69.2417 147.882 68.9579 148.269 68.2202L148.971 66.8844" stroke="#1EDC1A" stroke-linecap="round"/>
<path d="M141.572 45.6086L141.01 46.6773" stroke="#FFA640" stroke-linecap="round"/>
<mask id="path-42-inside-3_4_296" fill="white">
<path d="M39.4611 76.8568C40.6227 73.3701 42.9023 70.3641 45.9464 68.305C48.9905 66.246 52.6289 65.2489 56.2975 65.4684L55.3001 82.1334L39.4611 76.8568Z"/>
</mask>
<path d="M39.4611 76.8568C40.6227 73.3701 42.9023 70.3641 45.9464 68.305C48.9905 66.246 52.6289 65.2489 56.2975 65.4684L55.3001 82.1334L39.4611 76.8568Z" fill="white" stroke="#FFA640" stroke-width="2" mask="url(#path-42-inside-3_4_296)"/>
<mask id="path-43-inside-4_4_296" fill="white">
<path d="M41.9907 77.6999C42.9668 74.7699 44.8824 72.2438 47.4405 70.5135C49.9985 68.7832 53.0561 67.9453 56.1389 68.1298L55.3008 82.134L41.9907 77.6999Z"/>
</mask>
<path d="M41.9907 77.6999C42.9668 74.7699 44.8824 72.2438 47.4405 70.5135C49.9985 68.7832 53.0561 67.9453 56.1389 68.1298L55.3008 82.134L41.9907 77.6999Z" fill="white" stroke="#FFA640" stroke-width="2" mask="url(#path-43-inside-4_4_296)"/>
<mask id="path-44-inside-5_4_296" fill="white">
<path d="M58.4065 65.7301C61.6508 66.3445 64.6401 67.907 66.9963 70.2202C69.3525 72.5335 70.9698 75.4934 71.6438 78.7258C72.3177 81.9582 72.0181 85.3179 70.7826 88.38C69.5472 91.4421 67.4314 94.069 64.703 95.9287C61.9745 97.7883 58.7559 98.7972 55.4541 98.8276C52.1524 98.858 48.9157 97.9086 46.1535 96.0995C43.3913 94.2904 41.2275 91.7028 39.9359 88.664C38.6443 85.6252 38.2828 82.2716 38.8971 79.0273L55.3004 82.1335L58.4065 65.7301Z"/>
</mask>
<path d="M58.4065 65.7301C61.6508 66.3445 64.6401 67.907 66.9963 70.2202C69.3525 72.5335 70.9698 75.4934 71.6438 78.7258C72.3177 81.9582 72.0181 85.3179 70.7826 88.38C69.5472 91.4421 67.4314 94.069 64.703 95.9287C61.9745 97.7883 58.7559 98.7972 55.4541 98.8276C52.1524 98.858 48.9157 97.9086 46.1535 96.0995C43.3913 94.2904 41.2275 91.7028 39.9359 88.664C38.6443 85.6252 38.2828 82.2716 38.8971 79.0273L55.3004 82.1335L58.4065 65.7301Z" fill="white" stroke="#FFA640" stroke-width="2" mask="url(#path-44-inside-5_4_296)"/>
<mask id="path-45-inside-6_4_296" fill="white">
<path d="M57.9107 68.3494C60.6369 68.8657 63.1489 70.1788 65.1289 72.1226C67.1089 74.0665 68.468 76.5539 69.0344 79.2702C69.6007 81.9865 69.3489 84.8098 68.3107 87.3829C67.2725 89.9561 65.4946 92.1636 63.2018 93.7264C60.909 95.2891 58.2043 96.1368 55.4296 96.1624C52.655 96.1879 49.9352 95.3901 47.614 93.8699C45.2928 92.3496 43.4745 90.1752 42.3891 87.6216C41.3037 85.068 40.9999 82.2498 41.5162 79.5236L55.3005 82.1337L57.9107 68.3494Z"/>
</mask>
<path d="M57.9107 68.3494C60.6369 68.8657 63.1489 70.1788 65.1289 72.1226C67.1089 74.0665 68.468 76.5539 69.0344 79.2702C69.6007 81.9865 69.3489 84.8098 68.3107 87.3829C67.2725 89.9561 65.4946 92.1636 63.2018 93.7264C60.909 95.2891 58.2043 96.1368 55.4296 96.1624C52.655 96.1879 49.9352 95.3901 47.614 93.8699C45.2928 92.3496 43.4745 90.1752 42.3891 87.6216C41.3037 85.068 40.9999 82.2498 41.5162 79.5236L55.3005 82.1337L57.9107 68.3494Z" fill="white" stroke="#FFA640" stroke-width="2" mask="url(#path-45-inside-6_4_296)"/>
<circle cx="48.7098" cy="86.0256" r="1.74468" transform="rotate(-79.2775 48.7098 86.0256)" stroke="#FFA640"/>
<circle cx="56.1688" cy="90.8679" r="1.74468" transform="rotate(-79.2775 56.1688 90.8679)" stroke="#FFA640"/>
<circle cx="61.2293" cy="89.4133" r="1.74468" transform="rotate(-79.2775 61.2293 89.4133)" stroke="#FFA640"/>
<circle cx="48.4866" cy="75.1316" r="1.74468" transform="rotate(-79.2775 48.4866 75.1316)" stroke="#FFA640"/>
<circle cx="60.3101" cy="78.0696" r="1.74468" transform="rotate(-79.2775 60.3101 78.0696)" stroke="#FFA640"/>
<circle cx="62.7794" cy="83.9314" r="1.74468" transform="rotate(-79.2775 62.7794 83.9314)" stroke="#FFA640"/>
<path d="M52.1921 78.1897L52.7445 77.7232C53.0664 77.4513 53.1535 76.9911 52.9533 76.6204V76.6204C52.7532 76.2497 52.8403 75.7895 53.1622 75.5177V75.5177C53.484 75.2458 53.5712 74.7856 53.371 74.4149L53.0274 73.7787" stroke="#FFA640" stroke-linecap="round" stroke-linejoin="round"/>
<path d="M46.9941 82.7437L46.2825 82.8715C45.8678 82.946 45.5622 83.301 45.5503 83.7221V83.7221C45.5383 84.1432 45.2327 84.4982 44.8181 84.5727V84.5727C44.4034 84.6472 44.0978 85.0022 44.0858 85.4233L44.0653 86.146" stroke="#FFA640" stroke-linecap="round" stroke-linejoin="round"/>
<path d="M58.6833 86.0996L59.0962 85.506C59.3367 85.1601 59.3018 84.693 59.0125 84.3868V84.3868C58.7232 84.0806 58.6882 83.6134 58.9287 83.2676V83.2676C59.1693 82.9217 59.1343 82.4546 58.845 82.1484L58.3485 81.6228" stroke="#FFA640" stroke-linecap="round" stroke-linejoin="round"/>
<path d="M52.2844 91.2717L51.8179 90.7193C51.5461 90.3975 51.0858 90.3103 50.7151 90.5105V90.5105C50.3445 90.7107 49.8842 90.6235 49.6124 90.3017V90.3017C49.3406 89.9799 48.8803 89.8927 48.5096 90.0929L47.8734 90.4365" stroke="#FFA640" stroke-linecap="round" stroke-linejoin="round"/>
<path d="M66.2903 83.2112L66.3724 82.4928C66.4202 82.0743 66.168 81.6795 65.7681 81.547V81.547C65.3683 81.4145 65.1161 81.0198 65.1639 80.6012V80.6012C65.2117 80.1827 64.9595 79.7879 64.5596 79.6554L63.8733 79.428" stroke="#FFA640" stroke-linecap="round" stroke-linejoin="round"/>
<path d="M56.6772 85.8132L55.997 85.5681C55.6007 85.4253 55.1585 85.5799 54.9376 85.9386V85.9386C54.7167 86.2973 54.2745 86.452 53.8782 86.3092V86.3092C53.4819 86.1664 53.0397 86.321 52.8188 86.6797L52.4396 87.2954" stroke="#FFA640" stroke-linecap="round" stroke-linejoin="round"/>
<path d="M69.437 66.3646C72.3687 67.777 73.6004 71.2986 72.188 74.2303C70.7757 77.1621 67.2541 78.3938 64.3223 76.9814C61.3906 75.569 60.1589 72.0474 61.5712 69.1157C62.9836 66.1839 66.5052 64.9522 69.437 66.3646Z" fill="white"/>
<path d="M69.22 66.815C71.9029 68.1076 73.0301 71.3303 71.7376 74.0133C70.4451 76.6963 67.2223 77.8235 64.5393 76.5309C61.8564 75.2384 60.7292 72.0156 62.0217 69.3327C63.3142 66.6497 66.537 65.5225 69.22 66.815Z" stroke="#1EDC1A"/>
<path d="M66.5266 73.9941L69.0544 75.2119" stroke="#1EDC1A" stroke-linecap="round"/>
<path d="M65.4073 72.1416C66.2035 72.5251 66.4662 73.317 66.2127 73.8433C65.9592 74.3695 65.1761 74.6576 64.38 74.2741C63.5839 73.8905 63.3212 73.0986 63.5747 72.5724C63.8282 72.0462 64.6112 71.7581 65.4073 72.1416Z" stroke="#1EDC1A"/>
<path d="M65.7031 69.238L70.7587 71.6736" stroke="#1EDC1A" stroke-linecap="round"/>
<path d="M64.7268 70.3245L65.9907 70.9334C66.6887 71.2696 67.5272 70.9764 67.8635 70.2783V70.2783C68.1998 69.5803 67.9065 68.7418 67.2085 68.4055L65.9446 67.7967" stroke="#1EDC1A" stroke-linecap="round"/>
<path d="M80.4682 31.7826C81.9849 31.2521 83.621 31.9976 84.2465 33.4222L67.0041 39.4528C66.6053 37.9489 67.4202 36.3462 68.9369 35.8157L80.4682 31.7826ZM67.3713 40.3838L84.5397 34.379L90.1896 55.4043C91.2096 59.2001 89.1287 63.1401 85.4185 64.4377C81.7084 65.7354 77.6255 63.9512 76.0573 60.3471L67.3713 40.3838Z" fill="white" stroke="#FFA640"/>
<path d="M76.2884 48.9823C76.3508 47.5057 77.2964 46.1467 78.7764 45.629C80.2564 45.1114 81.8429 45.5848 82.812 46.7006M77.1099 51.4736C78.0693 52.6623 79.7067 53.1806 81.2311 52.6474C82.7555 52.1142 83.7129 50.6884 83.7223 49.1609" stroke="#FFA640"/>
<rect x="74.2859" y="49.4971" width="11.1528" height="3.09801" transform="rotate(-19.2775 74.2859 49.4971)" stroke="#FFA640" stroke-linejoin="round"/>
<path d="M83.8755 69.4082L81.4232 70.2659L81.2303 69.7144L79.9635 66.0923L90.7168 62.3313L91.9836 65.9533L92.1765 66.5049L89.7242 67.3626L88.734 67.7089L88.6689 67.5229C88.2953 66.4547 87.1265 65.8917 86.0583 66.2653C84.9901 66.6389 84.4271 67.8077 84.8007 68.8759L84.8657 69.0619L83.8755 69.4082ZM92.4639 67.4638C92.665 68.7512 91.9258 70.0387 90.6519 70.4843L85.0957 72.4276C83.8217 72.8732 82.4412 72.3271 81.7961 71.1949L84.2057 70.3521L85.6678 69.8407L87.13 69.3293L88.5921 68.8179L90.0543 68.3065L92.4639 67.4638ZM87.725 67.8531L87.79 68.0391L86.7998 68.3854L85.8097 68.7317L85.7446 68.5457C85.5533 67.9988 85.8416 67.4005 86.3885 67.2092C86.9353 67.0179 87.5337 67.3062 87.725 67.8531Z" fill="white" stroke="#FFA640"/>
<rect x="84.2376" y="37.0283" width="3.95682" height="5.19603" transform="rotate(-19.2775 84.2376 37.0283)" fill="white" stroke="#FFA640"/>
<path d="M98.5588 45.8553L102.782 61.9497C103.365 64.17 102.144 66.4653 99.9771 67.2231L97.2312 68.1835L94.4852 69.1439C92.3185 69.9017 89.9332 68.8677 89.005 66.7684L82.2766 51.5501C80.2343 46.9309 82.5661 41.5517 87.3334 39.8843C92.1007 38.2169 97.2769 40.9702 98.5588 45.8553Z" fill="white" stroke="#FFA640"/>
<rect x="81.024" y="31.5886" width="6.43523" height="7.67444" rx="3.21762" transform="rotate(-19.2775 81.024 31.5886)" fill="white" stroke="#FFA640"/>
<path d="M88.0757 32.9855L87.1785 30.4203L93.14 28.3352C93.8484 28.0875 94.6235 28.4609 94.8712 29.1692C95.119 29.8776 94.7456 30.6527 94.0372 30.9005L88.0757 32.9855Z" fill="white" stroke="#FFA640"/>
<path d="M93.4935 55.1515C93.2606 55.2981 93.0076 55.4211 92.7367 55.5158C91.3205 56.0111 89.8068 55.599 88.8298 54.5849M93.9588 49.2091C92.984 48.3572 91.5913 48.0395 90.282 48.4975C88.8658 48.9928 87.939 50.2586 87.807 51.6605" stroke="#FFA640" stroke-linecap="round"/>
<path d="M93.3937 52.9885L92.0778 53.4488L86.8141 55.2898L85.7913 52.3655L91.055 50.5245L93.6869 49.6039" stroke="#FFA640" stroke-linecap="round" stroke-linejoin="round"/>
<path d="M107.123 50.4838C108.309 53.8754 106.521 57.5864 103.13 58.7727C99.738 59.9589 96.027 58.1711 94.8407 54.7795C93.6545 51.3879 95.4423 47.6768 98.8339 46.4906C102.226 45.3043 105.937 47.0921 107.123 50.4838Z" fill="white"/>
<path d="M106.651 50.6488C107.746 53.7798 106.096 57.2056 102.965 58.3007C99.8336 59.3958 96.4078 57.7454 95.3127 54.6144C94.2176 51.4835 95.868 48.0576 98.999 46.9625C102.13 45.8675 105.556 47.5179 106.651 50.6488Z" stroke="#1EDC1A"/>
<path d="M97.8171 50.6211L99.0445 54.1303" stroke="#1EDC1A" stroke-linecap="round"/>
<path d="M100.186 51.7617L96.6764 52.9891" stroke="#1EDC1A" stroke-linecap="round"/>
<path d="M101.705 48.604L102.524 50.9435" stroke="#1EDC1A" stroke-linecap="round"/>
<path d="M103.285 49.3647L100.946 50.183" stroke="#1EDC1A" stroke-linecap="round"/>
<path d="M101.764 52.522L102.991 56.0311" stroke="#1EDC1A" stroke-linecap="round"/>
<path d="M104.132 53.6638L100.623 54.8912" stroke="#1EDC1A" stroke-linecap="round"/>
<path d="M83.7847 185.933L77.676 182.722L71.6946 179.579L65.4586 176.302L59.3499 173.092L65.9187 168.009L74.5522 151.581V151.581C75.2303 150.29 76.8261 149.794 78.1165 150.472L78.8344 150.849L84.9431 154.059L91.0518 157.27L91.7696 157.647C93.06 158.325 93.5564 159.921 92.8783 161.211V161.211L84.2447 177.64L83.7847 185.933Z" fill="white"/>
<path d="M77.676 182.722L83.7847 185.933L84.2447 177.64L92.8783 161.211M77.676 182.722L71.6946 179.579L65.4586 176.302M77.676 182.722V182.722C78.5881 175.933 70.5328 171.7 65.4586 176.302V176.302M65.4586 176.302L59.3499 173.092L65.9187 168.009L74.5522 151.581M92.8783 161.211V161.211C93.5564 159.921 93.06 158.325 91.7696 157.647L91.0518 157.27L84.9431 154.059L78.8344 150.849L78.1165 150.472C76.8261 149.794 75.2303 150.29 74.5522 151.581V151.581M92.8783 161.211L74.5522 151.581" stroke="#FFA640" stroke-linejoin="round"/>
<path d="M83.7841 185.932L84.2225 177.681L85.9945 174.309L87.1502 172.109L91.7184 174.51C92.8612 175.111 93.0936 176.647 92.1795 177.559V177.559L83.7841 185.932Z" fill="white"/>
<path d="M92.1795 177.559V177.559C93.0936 176.647 92.8612 175.111 91.7184 174.51L87.1502 172.109L85.9945 174.309M92.1795 177.559L83.7841 185.932L84.2225 177.681L85.9945 174.309M92.1795 177.559L85.9945 174.309" stroke="#FFA640" stroke-linejoin="round"/>
<path d="M59.3511 173.091L65.8982 168.05L67.6702 164.678L68.8259 162.479L64.2576 160.078C63.1148 159.478 61.7175 160.158 61.4851 161.428V161.428L59.3511 173.091Z" fill="white"/>
<path d="M61.4851 161.428V161.428C61.7175 160.158 63.1148 159.478 64.2576 160.078L68.8259 162.479L67.6702 164.678M61.4851 161.428L59.3511 173.091L65.8982 168.05L67.6702 164.678M61.4851 161.428L67.6702 164.678" stroke="#FFA640" stroke-linejoin="round"/>
<path d="M65.3748 148.647C66.9261 145.695 70.5768 144.56 73.5288 146.111C76.4809 147.662 77.6163 151.313 76.065 154.265C74.5137 157.217 70.863 158.353 67.911 156.801C64.959 155.25 63.8235 151.599 65.3748 148.647Z" fill="white"/>
<path d="M65.8174 148.88C67.2403 146.172 70.5887 145.131 73.2962 146.554C76.0038 147.976 77.0453 151.325 75.6224 154.032C74.1996 156.74 70.8512 157.781 68.1436 156.359C65.436 154.936 64.3946 151.587 65.8174 148.88Z" stroke="#1EDC1A"/>
<path d="M67.7359 152.325L70.7561 151.385" stroke="#1EDC1A" stroke-linecap="round"/>
<path d="M72.829 148.991L71.5564 148.322" stroke="#1EDC1A" stroke-linecap="round"/>
<path d="M68.7133 155.274L68.1782 156.292" stroke="#1EDC1A" stroke-linecap="round"/>
<path d="M72.2869 156.668L71.9453 155.569" stroke="#1EDC1A" stroke-linecap="round"/>
<path d="M75.4578 154.027L74.4397 153.492" stroke="#1EDC1A" stroke-linecap="round"/>
<path d="M66.9319 149.547L65.9138 149.012" stroke="#1EDC1A" stroke-linecap="round"/>
<circle cx="70.7864" cy="151.329" r="1.15014" transform="rotate(-152.278 70.7864 151.329)" fill="#1EDC1A"/>
<path d="M85.2307 147.064L90.9581 152.023L91.7607 150.496L97.9396 153.743L97.137 155.27L96.3345 156.797L90.1556 153.55L84.4281 148.591L76.7747 144.569L77.5773 143.042L85.2307 147.064Z" fill="white"/>
<path d="M97.137 155.27L90.9581 152.023M97.137 155.27L97.9396 153.743L91.7607 150.496L90.9581 152.023M97.137 155.27L96.3345 156.797L90.1556 153.55L84.4281 148.591L76.7747 144.569L77.5773 143.042L85.2307 147.064L90.9581 152.023" stroke="#FFA640" stroke-linecap="round" stroke-linejoin="round"/>
<path d="M96.335 156.797L93.7282 161.758C89.5172 159.545 86.2343 160.096 85.1193 160.648C85.0258 159.487 84.7284 156.943 84.1645 155.062C83.6893 153.477 83.0267 152.537 82.1175 151.559C80.1294 149.422 77.2356 146.945 76.0372 145.974L76.7753 144.57L84.4631 148.61L90.2263 153.587L92.6443 154.858L96.335 156.797Z" fill="white"/>
<path d="M92.6443 154.858L96.335 156.797L93.7282 161.758C89.5172 159.545 86.2343 160.096 85.1193 160.648C85.0258 159.487 84.7284 156.943 84.1645 155.062M92.6443 154.858C92.3099 155.494 90.7251 156.73 87.9456 155.27C86.442 154.48 84.9339 154.28 84.1645 155.062M92.6443 154.858L90.2263 153.587L84.4631 148.61L76.7753 144.57L76.0372 145.974C77.2356 146.945 80.1294 149.422 82.1175 151.559C83.0267 152.537 83.6893 153.477 84.1645 155.062" stroke="#FFA640" stroke-linecap="round" stroke-linejoin="round"/>
<path d="M90.8701 148.078L96.5975 153.037L97.4001 151.51L103.579 154.757L102.776 156.284L101.974 157.811L95.795 154.564L90.0675 149.605L82.4141 145.583L83.2167 144.056L90.8701 148.078Z" fill="white"/>
<path d="M102.776 156.284L96.5975 153.037M102.776 156.284L103.579 154.757L97.4001 151.51L96.5975 153.037M102.776 156.284L101.974 157.811L95.795 154.564L90.0675 149.605L82.4141 145.583L83.2167 144.056L90.8701 148.078L96.5975 153.037" stroke="#FFA640" stroke-linecap="round" stroke-linejoin="round"/>
<path d="M101.974 157.812L99.3676 162.772C95.1566 160.559 91.8737 161.11 90.7587 161.662C90.6652 160.502 90.3678 157.957 89.8039 156.076C89.3287 154.491 88.6661 153.551 87.7569 152.574C85.7688 150.436 82.875 147.96 81.6766 146.988L82.4147 145.584L90.1025 149.624L95.8657 154.601L98.2837 155.872L101.974 157.812Z" fill="white"/>
<path d="M98.2837 155.872L101.974 157.812L99.3676 162.772C95.1566 160.559 91.8737 161.11 90.7587 161.662C90.6652 160.502 90.3678 157.957 89.8039 156.076M98.2837 155.872C97.9493 156.508 96.3645 157.745 93.585 156.284C92.0814 155.494 90.5733 155.294 89.8039 156.076M98.2837 155.872L95.8657 154.601L90.1025 149.624L82.4147 145.584L81.6766 146.988C82.875 147.96 85.7688 150.436 87.7569 152.574C88.6661 153.551 89.3287 154.491 89.8039 156.076" stroke="#FFA640" stroke-linecap="round" stroke-linejoin="round"/>
<path fill-rule="evenodd" clip-rule="evenodd" d="M137.764 163.085C137.809 161.646 137.107 160.223 135.796 159.409C134.2 158.418 132.195 158.636 130.851 159.813L122.382 154.556C122.75 152.879 122.051 151.079 120.509 150.121C118.553 148.907 115.984 149.509 114.77 151.464C113.556 153.42 114.157 155.989 116.112 157.203C117.654 158.16 119.577 157.989 120.917 156.916L129.49 162.238C129.209 163.862 129.913 165.568 131.399 166.491C132.71 167.304 134.295 167.303 135.564 166.625L133.529 165.362C132.551 164.755 132.251 163.47 132.858 162.492C133.465 161.514 134.75 161.214 135.727 161.821L137.764 163.085ZM120.08 154.761L118.243 155.745L116.473 154.646L116.54 152.563L118.377 151.579L120.147 152.679L120.08 154.761Z" fill="white"/>
<path d="M137.764 163.085L137.5 163.51C137.652 163.604 137.842 163.61 138 163.526C138.157 163.441 138.258 163.279 138.263 163.101L137.764 163.085ZM130.851 159.813L130.588 160.238C130.775 160.354 131.015 160.334 131.181 160.189L130.851 159.813ZM122.382 154.556L121.894 154.449C121.849 154.656 121.939 154.869 122.119 154.981L122.382 154.556ZM120.917 156.916L121.18 156.491C121 156.38 120.769 156.393 120.604 156.526L120.917 156.916ZM129.49 162.238L129.982 162.324C130.017 162.123 129.927 161.921 129.753 161.814L129.49 162.238ZM135.564 166.625L135.8 167.066C135.958 166.982 136.058 166.82 136.064 166.641C136.07 166.463 135.98 166.295 135.828 166.2L135.564 166.625ZM118.243 155.745L117.98 156.17C118.131 156.264 118.322 156.27 118.479 156.186L118.243 155.745ZM120.08 154.761L120.316 155.202C120.474 155.118 120.574 154.956 120.58 154.777L120.08 154.761ZM116.473 154.646L115.973 154.63C115.967 154.808 116.057 154.977 116.209 155.071L116.473 154.646ZM116.54 152.563L116.303 152.122C116.146 152.207 116.045 152.369 116.04 152.547L116.54 152.563ZM118.377 151.579L118.64 151.155C118.489 151.06 118.298 151.054 118.141 151.139L118.377 151.579ZM120.147 152.679L120.647 152.694C120.652 152.516 120.562 152.348 120.411 152.254L120.147 152.679ZM135.532 159.834C136.685 160.55 137.304 161.801 137.264 163.069L138.263 163.101C138.314 161.491 137.528 159.896 136.059 158.984L135.532 159.834ZM131.181 160.189C132.363 159.153 134.128 158.962 135.532 159.834L136.059 158.984C134.271 157.874 132.026 158.12 130.522 159.437L131.181 160.189ZM122.119 154.981L130.588 160.238L131.115 159.389L122.646 154.131L122.119 154.981ZM122.871 154.663C123.283 152.785 122.5 150.769 120.772 149.697L120.245 150.546C121.601 151.388 122.218 152.972 121.894 154.449L122.871 154.663ZM120.772 149.697C118.582 148.337 115.704 149.01 114.345 151.2L115.194 151.728C116.263 150.007 118.524 149.478 120.245 150.546L120.772 149.697ZM114.345 151.2C112.985 153.391 113.658 156.268 115.849 157.628L116.376 156.778C114.655 155.71 114.126 153.449 115.194 151.728L114.345 151.2ZM115.849 157.628C117.576 158.7 119.729 158.508 121.229 157.306L120.604 156.526C119.424 157.471 117.732 157.62 116.376 156.778L115.849 157.628ZM129.753 161.814L121.18 156.491L120.653 157.341L129.226 162.663L129.753 161.814ZM131.663 166.066C130.356 165.254 129.735 163.754 129.982 162.324L128.997 162.153C128.683 163.971 129.47 165.882 131.136 166.916L131.663 166.066ZM135.329 166.184C134.211 166.781 132.815 166.782 131.663 166.066L131.136 166.916C132.604 167.827 134.38 167.824 135.8 167.066L135.329 166.184ZM133.265 165.786L135.301 167.05L135.828 166.2L133.793 164.937L133.265 165.786ZM132.433 162.228C131.68 163.441 132.053 165.034 133.265 165.786L133.793 164.937C133.05 164.475 132.821 163.499 133.283 162.756L132.433 162.228ZM135.991 161.396C134.779 160.643 133.186 161.016 132.433 162.228L133.283 162.756C133.744 162.013 134.72 161.784 135.464 162.246L135.991 161.396ZM138.027 162.66L135.991 161.396L135.464 162.246L137.5 163.51L138.027 162.66ZM118.479 156.186L120.316 155.202L119.844 154.321L118.007 155.304L118.479 156.186ZM116.209 155.071L117.98 156.17L118.507 155.32L116.737 154.221L116.209 155.071ZM116.04 152.547L115.973 154.63L116.973 154.662L117.039 152.579L116.04 152.547ZM118.141 151.139L116.303 152.122L116.776 153.004L118.613 152.02L118.141 151.139ZM120.411 152.254L118.64 151.155L118.113 152.004L119.883 153.103L120.411 152.254ZM120.58 154.777L120.647 152.694L119.647 152.663L119.581 154.745L120.58 154.777Z" fill="#FFA640"/>
<path d="M111.688 166.112C109.786 162.561 111.124 158.141 114.675 156.24C118.226 154.338 122.646 155.675 124.547 159.226C126.449 162.777 125.112 167.197 121.561 169.099C118.01 171 113.589 169.663 111.688 166.112Z" fill="white"/>
<path d="M112.129 165.876C110.358 162.569 111.603 158.452 114.911 156.68C118.218 154.909 122.335 156.155 124.106 159.462C125.878 162.77 124.632 166.887 121.325 168.658C118.017 170.429 113.9 169.184 112.129 165.876Z" stroke="#1EDC1A"/>
<path d="M119.76 165.731L116.481 159.607" stroke="#1EDC1A" stroke-linecap="round"/>
<path d="M115.059 164.309L121.182 161.03" stroke="#1EDC1A" stroke-linecap="round"/>
<path d="M117.114 165.993L119.125 159.345" stroke="#1EDC1A" stroke-linecap="round"/>
<path d="M114.795 161.664L121.444 163.675" stroke="#1EDC1A" stroke-linecap="round"/>
<circle cx="118.121" cy="162.669" r="2.62578" transform="rotate(151.832 118.121 162.669)" fill="white" stroke="#1EDC1A"/>
<path d="M130.925 178.859L125.261 181.892" stroke="#FFA640" stroke-linecap="round" stroke-linejoin="round"/>
<rect x="137.684" y="177.825" width="5.94619" height="4.55695" rx="2.27847" transform="rotate(151.832 137.684 177.825)" fill="white" stroke="#FFA640"/>
<rect x="142.166" y="177" width="5.94619" height="7.33542" rx="2.97309" transform="rotate(151.832 142.166 177)" fill="white" stroke="#FFA640"/>
<rect x="146.037" y="176.503" width="5.42522" height="10.1139" rx="2.71261" transform="rotate(151.832 146.037 176.503)" fill="white" stroke="#FFA640"/>
<mask id="path-118-inside-7_4_296" fill="white">
<path fill-rule="evenodd" clip-rule="evenodd" d="M153.085 160.868C153.409 160.577 153.773 160.32 154.173 160.106C156.879 158.657 160.247 159.676 161.695 162.381C163.144 165.087 162.125 168.455 159.42 169.903C158.804 170.233 158.153 170.435 157.498 170.518C156.932 172.06 155.82 173.407 154.258 174.243L150.278 176.375C146.896 178.186 142.687 176.912 140.876 173.53C139.065 170.148 140.338 165.939 143.72 164.128L144.396 163.766C143.971 163.225 143.655 162.585 143.488 161.872L140.323 148.344C139.711 145.73 141.335 143.114 143.95 142.502C146.564 141.891 149.18 143.514 149.792 146.129L152.957 159.656C153.052 160.062 153.093 160.469 153.085 160.868Z"/>
</mask>
<path fill-rule="evenodd" clip-rule="evenodd" d="M153.085 160.868C153.409 160.577 153.773 160.32 154.173 160.106C156.879 158.657 160.247 159.676 161.695 162.381C163.144 165.087 162.125 168.455 159.42 169.903C158.804 170.233 158.153 170.435 157.498 170.518C156.932 172.06 155.82 173.407 154.258 174.243L150.278 176.375C146.896 178.186 142.687 176.912 140.876 173.53C139.065 170.148 140.338 165.939 143.72 164.128L144.396 163.766C143.971 163.225 143.655 162.585 143.488 161.872L140.323 148.344C139.711 145.73 141.335 143.114 143.95 142.502C146.564 141.891 149.18 143.514 149.792 146.129L152.957 159.656C153.052 160.062 153.093 160.469 153.085 160.868Z" fill="white"/>
<path d="M153.085 160.868L152.085 160.847L152.037 163.148L153.752 161.612L153.085 160.868ZM157.498 170.518L157.372 169.526L156.769 169.603L156.56 170.174L157.498 170.518ZM154.258 174.243L154.73 175.125L154.258 174.243ZM150.278 176.375L149.806 175.493L150.278 176.375ZM144.396 163.766L144.868 164.647L145.918 164.085L145.182 163.148L144.396 163.766ZM143.488 161.872L144.461 161.644L144.461 161.644L143.488 161.872ZM140.323 148.344L141.297 148.117L141.297 148.117L140.323 148.344ZM143.95 142.502L143.722 141.529L143.722 141.529L143.95 142.502ZM149.792 146.129L148.818 146.357L148.818 146.357L149.792 146.129ZM152.957 159.656L151.983 159.884L151.983 159.884L152.957 159.656ZM153.752 161.612C154.017 161.375 154.315 161.164 154.645 160.987L153.701 159.224C153.23 159.477 152.8 159.779 152.417 160.123L153.752 161.612ZM154.645 160.987C156.864 159.799 159.626 160.635 160.814 162.853L162.577 161.909C160.868 158.717 156.894 157.515 153.701 159.224L154.645 160.987ZM160.814 162.853C162.002 165.072 161.166 167.834 158.948 169.022L159.892 170.785C163.084 169.075 164.286 165.102 162.577 161.909L160.814 162.853ZM158.948 169.022C158.441 169.293 157.908 169.458 157.372 169.526L157.624 171.511C158.398 171.412 159.166 171.173 159.892 170.785L158.948 169.022ZM156.56 170.174C156.075 171.494 155.124 172.646 153.786 173.362L154.73 175.125C156.516 174.169 157.789 172.626 158.437 170.863L156.56 170.174ZM153.786 173.362L149.806 175.493L150.75 177.256L154.73 175.125L153.786 173.362ZM149.806 175.493C146.911 177.043 143.307 175.953 141.757 173.058L139.994 174.002C142.066 177.871 146.881 179.328 150.75 177.256L149.806 175.493ZM141.757 173.058C140.207 170.163 141.297 166.56 144.192 165.009L143.248 163.246C139.379 165.318 137.922 170.134 139.994 174.002L141.757 173.058ZM144.192 165.009L144.868 164.647L143.924 162.884L143.248 163.246L144.192 165.009ZM145.182 163.148C144.846 162.72 144.594 162.212 144.461 161.644L142.514 162.099C142.715 162.958 143.096 163.731 143.609 164.384L145.182 163.148ZM144.461 161.644L141.297 148.117L139.349 148.572L142.514 162.099L144.461 161.644ZM141.297 148.117C140.811 146.04 142.1 143.962 144.178 143.476L143.722 141.529C140.569 142.266 138.612 145.42 139.349 148.572L141.297 148.117ZM144.178 143.476C146.255 142.99 148.332 144.28 148.818 146.357L150.766 145.901C150.028 142.749 146.874 140.791 143.722 141.529L144.178 143.476ZM148.818 146.357L151.983 159.884L153.93 159.428L150.766 145.901L148.818 146.357ZM151.983 159.884C152.059 160.208 152.091 160.531 152.085 160.847L154.084 160.888C154.094 160.406 154.045 159.917 153.93 159.428L151.983 159.884Z" fill="#FFA640" mask="url(#path-118-inside-7_4_296)"/>
<path d="M142.682 135.703C144.319 134.827 146.322 135.318 147.381 136.78L129.952 146.113C129.322 144.421 130.024 142.481 131.66 141.605L142.682 135.703ZM130.411 147.002L147.866 137.655C149.212 140.708 147.998 144.329 145.007 145.931L138.884 149.21C135.894 150.811 132.206 149.814 130.411 147.002Z" fill="white" stroke="#FFA640"/>
<path d="M143.834 165.076L143.274 165.376L140.528 162.096C139.463 160.824 139.837 158.895 141.299 158.112C142.572 157.43 144.157 157.91 144.839 159.183L145.336 160.111C146.292 161.897 145.619 164.119 143.834 165.076Z" fill="white" stroke="#FFA640"/>
<path d="M155.025 168.318L145.228 173.564" stroke="#FFA640" stroke-linecap="round" stroke-linejoin="round"/>
<path d="M153.058 164.644L143.26 169.89" stroke="#FFA640" stroke-linecap="round" stroke-linejoin="round"/>
<path d="M57.627 117.285C57.3635 117.367 57.2165 117.647 57.2989 117.911C57.3812 118.175 57.6616 118.322 57.9252 118.239L64.927 116.052L66.2309 120.226L60.725 121.946L60.6502 121.969L60.5861 122.014L57.3312 124.308C52.9588 127.388 47.2171 127.701 42.5412 125.127L41.7995 122.753L41.0578 120.379C43.4372 115.601 48.3356 112.59 53.6843 112.634L57.6657 112.666L57.7441 112.667L57.8189 112.643L63.3249 110.923L64.6288 115.097L57.627 117.285Z" fill="white" stroke="#FFA640" stroke-linecap="round"/>
<rect x="60.3301" y="118.004" width="10.3428" height="4.96989" rx="2.48495" transform="rotate(-107.349 60.3301 118.004)" fill="white" stroke="#FFA640"/>
<path d="M32.6821 121.72C31.9768 123.066 30.0787 123.144 29.2655 121.86C28.4524 120.576 29.334 118.893 30.8525 118.831C32.3709 118.769 33.3874 120.374 32.6821 121.72Z" stroke="#FFA640"/>
<path d="M34.297 132.518L35.6848 131.639C36.6603 131.021 36.6011 129.579 35.5783 129.043L34.1232 128.28C33.1004 127.744 31.881 128.517 31.9283 129.671L31.9957 131.312C32.043 132.466 33.3215 133.135 34.297 132.518Z" fill="white" stroke="#FFA640"/>
<circle cx="36.9997" cy="124.196" r="6.25099" transform="rotate(-107.349 36.9997 124.196)" fill="white" stroke="#FFA640"/>
<circle cx="38.3661" cy="123.703" r="0.75712" transform="rotate(-107.349 38.3661 123.703)" fill="#FFA640"/>
<path d="M38.726 123.59C39.5242 123.341 40.3735 123.786 40.6228 124.584" stroke="#FFA640" stroke-linecap="round"/>
<path d="M39.7201 121.694C39.9695 122.492 39.5246 123.342 38.7263 123.591" stroke="#FFA640" stroke-linecap="round"/>
<ellipse cx="36.8306" cy="126.827" rx="0.504747" ry="1.00949" transform="rotate(-107.349 36.8306 126.827)" fill="#FFA640"/>
<ellipse cx="35.3243" cy="122.01" rx="0.504747" ry="1.00949" transform="rotate(-107.349 35.3243 122.01)" fill="#FFA640"/>
<path d="M42.6162 130.65L39.3753 125.533" stroke="#FFA640" stroke-linecap="round" stroke-linejoin="round"/>
<path d="M39.6523 131.63L39.4041 125.578" stroke="#FFA640" stroke-linecap="round" stroke-linejoin="round"/>
<path d="M37.9128 115.601L38.1611 121.652" stroke="#FFA640" stroke-linecap="round" stroke-linejoin="round"/>
<path d="M34.9189 116.48L38.1598 121.597" stroke="#FFA640" stroke-linecap="round" stroke-linejoin="round"/>
<path d="M62.6877 139.741C60.2674 139.913 58.0465 138.398 57.323 136.082L56.288 132.769L55.2529 129.455C54.5294 127.139 55.4932 124.63 57.581 123.394V123.394L58.7685 122.69L63.5187 119.877L69.5712 139.252L64.0644 139.643L62.6877 139.741V139.741Z" fill="white"/>
<path d="M62.6877 139.741V139.741C60.2674 139.913 58.0465 138.398 57.323 136.082L56.288 132.769L55.2529 129.455C54.5294 127.139 55.4932 124.63 57.581 123.394V123.394M62.6877 139.741L57.581 123.394M62.6877 139.741L64.0644 139.643L69.5712 139.252L63.5187 119.877L58.7685 122.69L57.581 123.394" stroke="#FFA640" stroke-linejoin="round"/>
<rect x="69.8623" y="140.512" width="22.8796" height="2.58194" rx="1.29097" transform="rotate(-107.349 69.8623 140.512)" fill="white" stroke="#FFA640"/>
<path d="M64.0425 132.066L63.0634 128.932" stroke="#FFA640" stroke-linecap="round" stroke-linejoin="round"/>
<circle cx="63.5074" cy="132.859" r="0.746237" transform="rotate(-107.349 63.5074 132.859)" fill="#FFA640"/>
<circle cx="64.9331" cy="132.413" r="0.746237" transform="rotate(-107.349 64.9331 132.413)" fill="#FFA640"/>
<circle cx="62.1721" cy="128.585" r="0.746237" transform="rotate(-107.349 62.1721 128.585)" fill="#FFA640"/>
<circle cx="63.5979" cy="128.14" r="0.746237" transform="rotate(-107.349 63.5979 128.14)" fill="#FFA640"/>
<path d="M49.6663 106.067C52.9708 105.034 56.4864 106.876 57.5187 110.181C58.551 113.485 56.7091 117.001 53.4046 118.033C50.1002 119.066 46.5845 117.224 45.5522 113.919C44.5199 110.615 46.3619 107.099 49.6663 106.067Z" fill="white"/>
<path d="M49.8154 106.544C52.8563 105.594 56.0915 107.289 57.0414 110.33C57.9914 113.371 56.2964 116.606 53.2555 117.556C50.2147 118.506 46.9795 116.811 46.0295 113.77C45.0795 110.729 46.7746 107.494 49.8154 106.544Z" stroke="#1EDC1A"/>
<path d="M53.3886 111.471L52.9622 111.21C52.8873 111.332 52.8686 111.481 52.9107 111.618C52.9528 111.755 53.0517 111.867 53.1823 111.926L53.3886 111.471ZM54.2556 112.832L54.7098 113.041L54.7155 113.028L54.7206 113.016L54.2556 112.832ZM53.3268 109.859L53.6045 109.443L53.5931 109.435L53.5813 109.428L53.3268 109.859ZM53.1917 113.198C52.6564 113.365 51.8781 112.973 51.5849 112.034L50.6304 112.333C51.0255 113.597 52.2468 114.541 53.4899 114.152L53.1917 113.198ZM51.5849 112.034C51.2918 111.096 51.7085 110.331 52.2438 110.163L51.9456 109.209C50.7025 109.597 50.2354 111.068 50.6304 112.333L51.5849 112.034ZM53.3886 111.471C53.1823 111.926 53.1821 111.926 53.182 111.926C53.1819 111.926 53.1818 111.926 53.1817 111.926C53.1815 111.926 53.1814 111.926 53.1813 111.926C53.181 111.926 53.1808 111.926 53.1807 111.926C53.1804 111.926 53.1805 111.926 53.1807 111.926C53.1813 111.926 53.1829 111.927 53.1854 111.928C53.1905 111.93 53.1993 111.935 53.2112 111.941C53.2352 111.953 53.2711 111.972 53.3141 111.998C53.402 112.05 53.5097 112.123 53.6046 112.211C53.8117 112.402 53.8364 112.532 53.7906 112.648L54.7206 113.016C54.9992 112.311 54.5905 111.76 54.283 111.476C54.1206 111.326 53.9507 111.213 53.8254 111.139C53.7618 111.101 53.7071 111.071 53.6672 111.051C53.6472 111.041 53.6307 111.032 53.6185 111.027C53.6124 111.024 53.6073 111.021 53.6034 111.019C53.6014 111.019 53.5997 111.018 53.5983 111.017C53.5976 111.017 53.597 111.016 53.5965 111.016C53.5962 111.016 53.5959 111.016 53.5957 111.016C53.5956 111.016 53.5954 111.016 53.5954 111.016C53.5952 111.016 53.595 111.016 53.3886 111.471ZM53.8013 112.623C53.6644 112.921 53.4479 113.118 53.1917 113.198L53.4899 114.152C54.0585 113.975 54.4744 113.553 54.7098 113.041L53.8013 112.623ZM52.2438 110.163C52.5 110.083 52.7902 110.122 53.0722 110.289L53.5813 109.428C53.0963 109.141 52.5142 109.031 51.9456 109.209L52.2438 110.163ZM53.0491 110.274C53.1593 110.348 53.2107 110.471 53.1493 110.74C53.1209 110.865 53.0735 110.985 53.0305 111.078C53.0095 111.123 52.9907 111.159 52.9778 111.182C52.9715 111.194 52.9666 111.202 52.9638 111.207C52.9624 111.21 52.9616 111.211 52.9613 111.211C52.9611 111.212 52.9611 111.212 52.9613 111.211C52.9613 111.211 52.9614 111.211 52.9616 111.211C52.9617 111.211 52.9618 111.211 52.9619 111.211C52.9619 111.21 52.962 111.21 52.962 111.21C52.9621 111.21 52.9622 111.21 53.3886 111.471C53.8151 111.732 53.8152 111.732 53.8153 111.732C53.8153 111.732 53.8154 111.731 53.8155 111.731C53.8156 111.731 53.8158 111.731 53.8159 111.731C53.8163 111.73 53.8166 111.73 53.817 111.729C53.8178 111.728 53.8188 111.726 53.8199 111.724C53.8221 111.72 53.825 111.715 53.8284 111.71C53.8353 111.698 53.8444 111.682 53.8552 111.662C53.8768 111.623 53.9055 111.567 53.9368 111.5C53.9985 111.368 54.0752 111.178 54.1244 110.962C54.2182 110.55 54.2386 109.866 53.6045 109.443L53.0491 110.274Z" fill="#1EDC1A"/>
<circle cx="49.0426" cy="111.578" r="0.895484" transform="rotate(-107.349 49.0426 111.578)" fill="#1EDC1A"/>
<circle cx="49.7472" cy="109.326" r="0.895484" transform="rotate(-107.349 49.7472 109.326)" fill="#1EDC1A"/>
<circle cx="49.7537" cy="113.857" r="0.895484" transform="rotate(-107.349 49.7537 113.857)" fill="#1EDC1A"/>
<circle cx="51.6158" cy="115.309" r="0.895484" transform="rotate(-107.349 51.6158 115.309)" fill="#1EDC1A"/>
</svg>
