<svg width="111" height="90" viewBox="0 0 111 90" fill="none" xmlns="http://www.w3.org/2000/svg">
<path d="M44.5812 42.1428L60.623 68.9897C63.4559 73.7307 69.6624 75.3928 74.4855 72.7022L90.4175 63.8146C92.8953 62.4324 94.6382 60.0806 95.2121 57.3452L95.7937 54.573C96.2929 52.1935 95.8687 49.705 94.6028 47.5864L79.6578 22.5753C76.8249 17.8343 70.6185 16.1722 65.7953 18.8627L48.1848 28.6868C43.3617 31.3773 41.7483 37.4018 44.5812 42.1428Z" fill="#FFD29E"/>
<path d="M87.6478 28.6465L98.5603 46.9091C102.81 54.0205 100.389 63.0573 93.1548 67.0931L87.3714 70.3194C83.8428 72.2878 79.6272 72.7737 75.6792 71.6671L70.7239 70.2781C66.8975 69.2055 63.631 66.7232 61.6223 63.3616L52.5711 48.214C48.3218 41.1025 50.7419 32.0658 57.9767 28.0299L66.8541 23.0777C74.0888 19.0418 83.3985 21.535 87.6478 28.6465Z" fill="white"/>
<path d="M82.2136 72.0521L81.4337 70.7469C78.3175 65.5318 71.4904 63.7034 66.1849 66.6631L65.1158 67.2595L50.8797 43.4347C48.3301 39.1678 49.7822 33.7458 54.1231 31.3242L71.7336 21.5002C76.0744 19.0787 81.6602 20.5746 84.2098 24.8415L100.252 51.6884C102.801 55.9553 101.349 61.3773 97.0084 63.7988L82.2136 72.0521ZM79.6871 71.7212L79.7203 71.7768L67.3433 68.3075C71.6646 65.989 77.1633 67.4976 79.6871 71.7212Z" stroke="#FFA640" stroke-width="2" stroke-linejoin="round"/>
<path d="M76.2738 21.056C78.5679 21.056 80.4425 19.2568 80.4425 17.0196C80.4425 14.7824 78.5679 12.9832 76.2738 12.9832C73.9796 12.9832 72.105 14.7824 72.105 17.0196C72.105 19.2568 73.9796 21.056 76.2738 21.056Z" stroke="#FFA640" stroke-width="2"/>
<path d="M76.27 15.2412L76.27 1.0103" stroke="#FFA640" stroke-width="2" stroke-linecap="round"/>
<path d="M70.4829 29.4717L76.8609 25.9137" stroke="#FFA640" stroke-width="2" stroke-linecap="round"/>
<rect width="6.25952" height="6.15293" rx="3" transform="matrix(0.873309 -0.487175 0.51294 0.85843 58.1235 32.7754)" stroke="#FFA640" stroke-width="2"/>
<path d="M76.2681 39.1279L89.0232 32.0125" stroke="#FFA640" stroke-width="2" stroke-linecap="round"/>
<rect width="6.25952" height="6.15293" rx="3" transform="matrix(0.873309 -0.487175 0.51294 0.85843 63.9067 42.686)" stroke="#FFA640" stroke-width="2"/>
<path d="M82.3208 48.7847L84.1422 47.7686" stroke="#FFA640" stroke-width="2" stroke-linecap="round"/>
<path d="M108.359 43.1937C108.359 49.0883 103.413 53.8669 97.3124 53.8669C91.2117 53.8669 86.2661 49.0883 86.2661 43.1937C86.2661 37.2991 91.2117 32.5205 97.3124 32.5205C103.413 32.5205 108.359 37.2991 108.359 43.1937Z" fill="#1EDC1A"/>
<path d="M100.925 40.1345C99.9511 39.5633 96.5233 38.4459 94.1756 39.697C93.4191 40.1002 92.9531 40.8231 93.1486 41.5737C93.5076 42.952 95.0842 42.952 97.1297 42.952C99.8685 42.952 101.659 43.7211 101.512 45.3998C101.365 47.0785 97.8601 48.2147 93.2953 46.1341" stroke="white" stroke-width="2" stroke-linecap="round" stroke-linejoin="round"/>
<path d="M97.313 37.0942V49.2922" stroke="white" stroke-width="2" stroke-linecap="round" stroke-linejoin="round"/>
<path d="M11.1911 50.7874C12.4865 47.6078 15.328 45.276 18.7206 44.6085L27.0127 42.9771C30.8397 42.2241 34.7235 43.7108 36.987 46.7952L41.8916 53.4782C43.8982 56.2125 44.3292 59.797 43.0338 62.9766L41.0275 67.9009L36.6335 78.6856C34.5459 83.8095 28.6795 86.3654 23.5305 84.3944L10.3339 79.3428C5.18491 77.3718 2.70318 71.6203 4.7908 66.4964L9.18477 55.7117L11.1911 50.7874Z" fill="#FFD29E"/>
<path fill-rule="evenodd" clip-rule="evenodd" d="M23.8986 41.6925C18.9568 43.2487 15.1295 47.1988 13.7587 52.1577L13.0812 54.6084L11.319 60.9831C9.11171 68.9679 13.8224 77.1291 21.8407 79.2116L25.9021 80.2665C33.9204 82.349 42.2098 77.5642 44.4171 69.5794L46.1793 63.2048L46.8568 60.754C48.2276 55.7951 46.9506 50.5193 43.4737 46.7766L41.7963 44.971C37.8829 40.7586 31.8447 39.1903 26.2826 40.9418L23.8986 41.6925ZM32.2774 49.1519C33.7018 49.5219 35.1659 48.7025 35.5475 47.3219C35.9292 45.9412 35.0839 44.5221 33.6595 44.1522C32.2351 43.7822 30.771 44.6016 30.3894 45.9822C30.0077 47.3629 30.853 48.782 32.2774 49.1519Z" fill="white"/>
<mask id="path-16-inside-1_4_874" fill="white">
<path fill-rule="evenodd" clip-rule="evenodd" d="M21.2563 42.5266C17.9618 43.564 15.4103 46.1974 14.4964 49.5033L13.085 54.6092L9.99055 65.8032C8.51902 71.1264 11.6595 76.5672 17.005 77.9555L30.7453 81.5242C36.0908 82.9125 41.6171 79.7227 43.0886 74.3995L46.1831 63.2056L47.5945 58.0997C48.5084 54.7937 47.6571 51.2766 45.3391 48.7814L39.6643 42.6729C37.0554 39.8646 33.0299 38.8191 29.3219 39.9867L21.2563 42.5266ZM32.2681 49.1133C33.6829 49.4807 35.1371 48.6669 35.5162 47.2956C35.8952 45.9242 35.0557 44.5147 33.6409 44.1472C32.2261 43.7798 30.7719 44.5936 30.3928 45.9649C30.0137 47.3363 30.8533 48.7458 32.2681 49.1133Z"/>
</mask>
<path d="M21.2563 42.5266L21.8401 44.4247L21.8401 44.4247L21.2563 42.5266ZM46.1831 63.2056L44.2473 62.7028L46.1831 63.2056ZM47.5945 58.0997L49.5303 58.6024L47.5945 58.0997ZM45.3391 48.7814L46.8238 47.4205L46.8238 47.4205L45.3391 48.7814ZM39.6643 42.6729L41.149 41.312L41.149 41.312L39.6643 42.6729ZM29.3219 39.9867L29.9057 41.8848L29.9057 41.8848L29.3219 39.9867ZM16.4322 50.0061C17.1633 47.3614 19.2045 45.2547 21.8401 44.4247L20.6725 40.6285C16.7191 41.8734 13.6573 45.0334 12.5606 49.0006L16.4322 50.0061ZM15.0207 55.112L16.4322 50.0061L12.5606 49.0006L11.1492 54.1065L15.0207 55.112ZM11.9263 66.3059L15.0207 55.112L11.1492 54.1065L8.05477 65.3004L11.9263 66.3059ZM17.5379 76.0278C13.2615 74.9171 10.7491 70.5645 11.9263 66.3059L8.05477 65.3004C6.28894 71.6882 10.0575 78.2172 16.4721 79.8832L17.5379 76.0278ZM31.2782 79.5965L17.5379 76.0278L16.4721 79.8832L30.2125 83.4519L31.2782 79.5965ZM41.1529 73.8967C39.9757 78.1553 35.5546 80.7072 31.2782 79.5965L30.2125 83.4519C36.627 85.1179 43.2586 81.2901 45.0244 74.9023L41.1529 73.8967ZM44.2473 62.7028L41.1529 73.8967L45.0244 74.9023L48.1188 63.7083L44.2473 62.7028ZM45.6587 57.5969L44.2473 62.7028L48.1188 63.7083L49.5303 58.6024L45.6587 57.5969ZM43.8544 50.1423C45.7088 52.1384 46.3898 54.9522 45.6587 57.5969L49.5303 58.6024C50.6269 54.6353 49.6054 50.4147 46.8238 47.4205L43.8544 50.1423ZM38.1796 44.0338L43.8544 50.1423L46.8238 47.4205L41.149 41.312L38.1796 44.0338ZM29.9057 41.8848C32.8721 40.9507 36.0925 41.7871 38.1796 44.0338L41.149 41.312C38.0183 37.942 33.1877 36.6874 28.7381 38.0886L29.9057 41.8848ZM21.8401 44.4247L29.9057 41.8848L28.7381 38.0886L20.6725 40.6285L21.8401 44.4247ZM33.5804 46.7928C33.5091 47.0508 33.1963 47.2882 32.801 47.1856L31.7352 51.041C34.1695 51.6732 36.7651 50.2831 37.4519 47.7983L33.5804 46.7928ZM33.108 46.0749C33.5033 46.1776 33.6517 46.5348 33.5804 46.7928L37.4519 47.7983C38.1388 45.3136 36.608 42.8517 34.1738 42.2195L33.108 46.0749ZM32.3286 46.4677C32.3999 46.2097 32.7127 45.9722 33.108 46.0749L34.1738 42.2195C31.7395 41.5873 29.1439 42.9774 28.457 45.4622L32.3286 46.4677ZM32.801 47.1856C32.4057 47.0829 32.2573 46.7256 32.3286 46.4677L28.457 45.4622C27.7702 47.9469 29.3009 50.4087 31.7352 51.041L32.801 47.1856Z" fill="#FFA640" mask="url(#path-16-inside-1_4_874)"/>
<path d="M33.5002 44.2435L36.8403 32.1606" stroke="#FFA640" stroke-width="2" stroke-linecap="round"/>
<path d="M29.0569 55.8695L38.9433 58.4372" stroke="#FFA640" stroke-width="2" stroke-linecap="round"/>
<rect width="5.32928" height="5.1873" rx="2.59365" transform="matrix(0.967888 0.251383 -0.266443 0.963851 20.9915 50.8787)" stroke="#FFA640" stroke-width="2"/>
<path d="M26.8098 63.9948L31.968 65.3344" stroke="#FFA640" stroke-width="2" stroke-linecap="round"/>
<rect width="5.32928" height="5.1873" rx="2.59365" transform="matrix(0.967888 0.251383 -0.266443 0.963851 18.7458 59.0032)" stroke="#FFA640" stroke-width="2"/>
<path d="M24.5625 72.1193L33.1594 74.3521" stroke="#FFA640" stroke-width="2" stroke-linecap="round"/>
<rect width="5.32928" height="5.1873" rx="2.59365" transform="matrix(0.967888 0.251383 -0.266443 0.963851 16.5005 67.1277)" stroke="#FFA640" stroke-width="2"/>
<path d="M53.5524 68.7156C53.5524 73.7184 49.3684 77.7739 44.2072 77.7739C39.046 77.7739 34.8621 73.7184 34.8621 68.7156C34.8621 63.7129 39.046 59.6573 44.2072 59.6573C49.3684 59.6573 53.5524 63.7129 53.5524 68.7156Z" fill="#1EDC1A"/>
<path d="M42.3466 73.0289V68.7246M42.3466 68.7246L42.3466 64.4203C44.0895 64.3417 47.5752 64.4203 47.5752 66.6582C47.5752 68.7246 44.0895 68.7033 42.3466 68.7246ZM42.3466 68.7246H40.6487M40.6487 71.2519H43.9297" stroke="white" stroke-width="2" stroke-linecap="round" stroke-linejoin="round"/>
</svg>
