<svg width="173" height="377" viewBox="0 0 173 377" fill="none" xmlns="http://www.w3.org/2000/svg">
<rect opacity="0.1" y="-13.6445" width="155.837" height="300" transform="rotate(-41.0569 0 -13.6445)" fill="#1EDC1A"/>
<rect opacity="0.1" x="193.291" y="46" width="155.837" height="396.556" transform="rotate(26.3948 193.291 46)" fill="#1EDC1A"/>
<path d="M135.758 0.763222C138.406 -4.06155 148.083 -18.2708 149.045 -19.8062L169.158 -1.45019C165.767 2.18472 158.804 9.99061 158.076 12.1349C157.166 14.8152 155.699 17.8651 155.48 18.1045C159.319 17.7457 172.475 10.0624 178.574 6.26559L198.567 24.5124L190.798 27.7353C184.241 29.8704 170.922 35.1823 170.103 39.35C169.079 44.5595 166.333 54.781 164.965 57.4822C163.871 59.6432 158.29 67.9213 155.637 71.7903C152.807 74.1223 148.731 79.6777 147.047 82.1639C143.525 81.4069 143.008 77.4532 143.19 75.571C142.657 75.9625 140.421 76.9212 139.37 77.3516C135.452 79.4809 124.409 78.8379 118.117 79.2399C113.084 79.5615 111.481 77.1336 111.309 75.8794C106.176 78.0413 104.844 74.1478 104.819 71.9309C102.995 72.1977 101.686 70.3147 101.259 69.3399C99.0354 68.8907 98.85 65.1667 99.0353 63.3608C97.2766 65.0473 95.4134 64.444 93.8362 62.5657C92.259 60.6873 94.3386 50.9552 95.1128 45.2981C95.7322 40.7725 97.6701 38.4889 98.5617 37.9127C94.315 37.3724 93.2805 34.4826 93.2941 33.1052C94.68 32.4683 97.6922 30.9311 98.6537 29.8776C99.8556 28.5607 101.671 25.6095 102.077 24.4437C102.483 23.2779 114.413 10.6867 118.867 7.72982C123.321 4.77296 133.11 5.58799 135.758 0.763222Z" fill="#FFD29E" stroke="#FFD29E" stroke-linecap="round"/>
<path d="M131.984 23.6519C128.114 23.4844 119.812 23.4275 117.568 24.5395C114.764 25.9296 106.824 32.9464 104.727 34.7631C103.049 36.2164 101.343 36.868 100.699 37.0121M109.489 36.0371C108.625 37.2238 104.406 42.8087 104.021 44.4325C103.636 46.0563 101.556 50.7404 100.61 60.1913M114.996 41.0632C114.897 41.4119 112.915 45.7473 110.085 49.089C107.82 51.7623 107.152 60.2368 107.101 64.1399M102.652 69.7353C103.851 70.0247 106.366 69.6575 106.836 65.8729M119.307 50.0446C117.871 52.0988 113.88 58.3463 111.987 63.1137M122.795 56.0807C122.467 56.4398 112.498 69.2857 110.9 66.9494M129.508 57.3803C129.279 57.3908 122.932 64.1054 119.367 63.924M136.935 61.7451C136.587 61.6463 134.078 61.9903 129.187 65.426C125.274 68.1746 116.563 68.6794 112.696 68.5883M146.455 66.7027C144.977 66.1583 140.682 65.9107 135.329 69.2758C131.631 70.3625 122.651 72.5393 116.319 72.5531C115.407 72.6712 113.455 73.1428 112.947 74.0838M149.546 41.436C149.458 42.0137 149.881 48.7633 152.682 54.8308C155.483 60.8982 147.11 65.9844 145.368 70.5383C145.091 71.1629 144.524 72.6649 144.479 73.6766M154.496 19.1821C150.859 22.4458 143.276 29.7446 142.04 32.8299" stroke="#FFA640" stroke-linecap="round"/>
<path d="M144.963 40.9842C143.926 40.0373 142.676 39.3547 141.318 38.9942C139.961 38.6338 138.537 38.6062 137.166 38.9138C137.348 37.5212 137.191 36.1054 136.708 34.7865C136.225 33.4677 135.432 32.2847 134.394 31.3382C132.681 29.7748 130.417 28.9559 128.101 29.0617C125.784 29.1674 123.604 30.1892 122.041 31.9022C115.911 38.6183 118.486 51.1266 120.012 57.7103C126.707 58.629 139.398 60.0539 145.527 53.3378C146.301 52.4896 146.901 51.4973 147.291 50.4174C147.682 49.3376 147.856 48.1913 147.804 47.0442C147.751 45.897 147.474 44.7714 146.986 43.7317C146.499 42.6919 145.811 41.7583 144.963 40.9842Z" fill="#1EDC1A"/>
</svg>
