<svg width="22" height="22" viewBox="0 0 22 22" fill="none" xmlns="http://www.w3.org/2000/svg">
<path fill-rule="evenodd" clip-rule="evenodd" d="M2.12361 0.709885C1.73309 0.319361 1.09992 0.319361 0.709397 0.709885C0.318873 1.10041 0.318873 1.73357 0.709397 2.1241L9.58565 11.0004L0.709397 19.8766C0.318873 20.2671 0.318873 20.9003 0.709397 21.2908C1.09992 21.6813 1.73309 21.6813 2.12361 21.2908L10.9999 12.4146L19.8761 21.2908C20.2666 21.6813 20.8998 21.6813 21.2903 21.2908C21.6809 20.9003 21.6809 20.2671 21.2903 19.8766L12.4141 11.0004L21.2903 2.1241C21.6809 1.73357 21.6809 1.10041 21.2903 0.709885C20.8998 0.319361 20.2666 0.319361 19.8761 0.709885L10.9999 9.58614L2.12361 0.709885Z" fill="#2B2B2B"/>
</svg>
