<svg width="40" height="40" viewBox="0 0 40 40" fill="none" xmlns="http://www.w3.org/2000/svg">
<rect width="40" height="40" fill="white"/>
<path d="M18.6107 6.66566C19.1066 5.85979 20.278 5.85979 20.7739 6.66565L36.4039 32.0644C36.9246 32.9106 36.3158 34 35.3223 34H4.06231C3.06876 34 2.45999 32.9106 2.98071 32.0644L18.6107 6.66566Z" fill="white" stroke="#FFA640" stroke-width="2"/>
<path d="M18 14.5C17.8502 14.5 17.7083 14.5672 17.6133 14.683C17.5184 14.7988 17.4803 14.9512 17.5097 15.0981L19.5097 25.0981C19.5565 25.3318 19.7617 25.5 20 25.5C20.2383 25.5 20.4435 25.3318 20.4903 25.0981L22.4903 15.0981C22.5197 14.9512 22.4816 14.7988 22.3867 14.683C22.2917 14.5672 22.1498 14.5 22 14.5H18Z" fill="#FFA640" stroke="#FFA640" stroke-linejoin="round"/>
<circle cx="20" cy="29" r="2" fill="#FFA640"/>
</svg>
