<svg width="36" height="36" viewBox="0 0 36 36" fill="none" xmlns="http://www.w3.org/2000/svg">
<rect width="36" height="36" rx="8" transform="matrix(-1 0 0 1 36 0)" fill="#1EDC1A"/>
<rect width="20" height="3" rx="1.5" transform="matrix(-1 -8.74228e-08 -8.74228e-08 1 28 10)" fill="white"/>
<mask id="path-3-inside-1_1_45" fill="white">
<path d="M20 9C20 8.44772 19.5523 8 19 8L17 8C16.4477 8 16 8.44771 16 9L16 13L20 13L20 9Z"/>
</mask>
<path d="M20 9C20 8.44772 19.5523 8 19 8L17 8C16.4477 8 16 8.44771 16 9L16 13L20 13L20 9Z" stroke="white" stroke-width="4" mask="url(#path-3-inside-1_1_45)"/>
<path fill-rule="evenodd" clip-rule="evenodd" d="M25.084 26.1636C24.9989 27.2012 24.1319 28 23.0907 28H12.9093C11.8681 28 11.0011 27.2012 10.916 26.1636L10 15H26L25.084 26.1636ZM15 17C15.5523 17 16 17.4477 16 18V25C16 25.5523 15.5523 26 15 26C14.4477 26 14 25.5523 14 25V18C14 17.4477 14.4477 17 15 17ZM22 18C22 17.4477 21.5523 17 21 17C20.4477 17 20 17.4477 20 18V25C20 25.5523 20.4477 26 21 26C21.5523 26 22 25.5523 22 25V18Z" fill="white"/>
</svg>
