<svg width="36" height="36" viewBox="0 0 36 36" fill="none" xmlns="http://www.w3.org/2000/svg">
<path d="M22.1982 12.9119L22.4243 13.5994H23.1481H34.1621C34.9959 13.5994 35.2824 14.6164 34.6572 15.065L25.7468 21.46L25.1506 21.8879L25.3799 22.5849L28.7834 32.9322C29.0161 33.6396 28.182 34.3274 27.4935 33.8333L18.5831 27.4383L18 27.0198L17.4169 27.4383L8.50645 33.8333C7.81805 34.3274 6.98393 33.6396 7.2166 32.9322L10.6201 22.5849L10.8494 21.8879L10.2532 21.46L1.34275 15.065C0.717595 14.6164 1.00413 13.5994 1.83792 13.5994H12.8519H13.5757L13.8018 12.9119L17.2053 2.56456C17.4529 1.81182 18.5471 1.81181 18.7947 2.56456L22.1982 12.9119Z" fill="#FDFDFD" stroke="#DDDDDD" stroke-width="2"/>
</svg>
